<?xml version="1.0" encoding="utf-8"?>
<!-- Generator: Adobe Illustrator 15.1.0, SVG Export Plug-In . SVG Version: 6.00 Build 0)  -->
<!DOCTYPE svg PUBLIC "-//W3C//DTD SVG 1.1//EN" "http://www.w3.org/Graphics/SVG/1.1/DTD/svg11.dtd">
<svg version="1.1" id="Layer_1" xmlns="http://www.w3.org/2000/svg" xmlns:xlink="http://www.w3.org/1999/xlink" x="0px" y="0px"
	 width="1000px" height="1000px" viewBox="0 0 1000 1000" enable-background="new 0 0 1000 1000" xml:space="preserve">
<g>
	<g>
		<path fill="#FFFFFF" d="M980.08,368.102h-13.35c-13.006-65.986-79.713-182.168-109.244-231.377
			c13.846-9.523,22.947-25.471,22.947-43.508c0-29.102-23.678-52.779-52.779-52.779s-52.777,23.676-52.777,52.779
			c0,18.037,9.102,33.984,22.949,43.508c-29.529,49.209-96.236,165.391-109.242,231.377h-13.348c-11,0-19.92,8.918-19.92,19.92
			c0,95.029,77.313,172.342,172.342,172.342S1000,483.051,1000,388.021C1000,377.02,991.08,368.102,980.08,368.102z M827.656,80.279
			c7.133,0,12.938,5.805,12.938,12.938s-5.805,12.936-12.938,12.936s-12.936-5.803-12.936-12.936S820.521,80.279,827.656,80.279z
			 M827.625,164.459c33.709,56.898,85.766,151.676,98.57,203.643H729.18C741.268,319.445,788.105,230.877,827.625,164.459z
			 M827.656,520.523c-66.291,0-121.371-48.936-131.008-112.582h262.018C949.027,471.588,893.951,520.523,827.656,520.523z"/>
	</g>
</g>
<g>
	<g>
		<path fill="#FFFFFF" d="M677.309,845.066h-52.664v-50.59c0-11.002-8.92-19.92-19.92-19.92h-50.59V218.105
			c13.029-12.879,21.422-30.439,22.395-49.926l84.23-18.125c10.756-2.314,17.6-12.91,15.285-23.666
			c-2.316-10.756-12.912-17.592-23.666-15.283l-84.428,18.17c-12.666-24.047-37.9-40.49-66.916-40.49
			c-40.182,0-73.127,31.516-75.445,71.125l-210.625,45.324c-9.609-13.143-25.131-21.701-42.621-21.701
			c-29.102,0-52.779,23.676-52.779,52.779c0,18.037,9.102,33.986,22.949,43.508c-29.531,49.209-96.236,165.391-109.242,231.377
			H19.924C8.918,511.197,0,520.115,0,531.117c0,95.029,77.313,172.342,172.342,172.342s172.342-77.313,172.342-172.342
			c0-11.002-8.918-19.92-19.92-19.92h-13.348c-13.006-65.988-79.713-182.168-109.242-231.377
			c11.863-8.158,20.234-21.031,22.393-35.896l209.26-45.029c3.682,7.137,8.453,13.621,14.111,19.215v556.453H397.35
			c-11.002,0-19.92,8.918-19.92,19.92v50.59h-52.664c-11.002,0-19.92,8.918-19.92,19.92v74.65c0,11.002,8.918,19.92,19.92,19.92
			h352.543c11,0,19.92-8.918,19.92-19.92v-74.656C697.229,853.984,688.309,845.066,677.309,845.066z M172.342,223.371
			c7.133,0,12.938,5.805,12.938,12.938s-5.805,12.936-12.938,12.936s-12.938-5.803-12.938-12.936S165.209,223.371,172.342,223.371z
			 M172.342,663.615c-66.293,0-121.371-48.936-131.008-112.582H303.35C293.713,614.68,238.635,663.615,172.342,663.615z
			 M270.881,511.193H73.865c12.09-48.656,58.928-137.225,98.447-203.643C206.02,364.447,258.076,459.225,270.881,511.193z
			 M501.037,128.621c19.713,0,35.748,16.035,35.748,35.748s-16.037,35.748-35.748,35.748s-35.748-16.035-35.748-35.748
			S481.324,128.621,501.037,128.621z M514.297,238.773v535.785h-26.52V238.771c4.309,0.768,8.734,1.189,13.262,1.189
			S509.988,239.537,514.297,238.773z M417.268,814.396h167.537v30.67H417.268V814.396L417.268,814.396z M657.389,919.721H344.686
			v-34.814h312.703V919.721z"/>
	</g>
</g>
<g>
	<g>
		<path fill="#FFFFFF" d="M752.773,111.109c-2.314-10.756-12.912-17.598-23.668-15.283l-14.516,3.123
			c-10.754,2.314-17.598,12.91-15.283,23.666c2.014,9.344,10.271,15.732,19.457,15.732c1.389,0,2.799-0.145,4.211-0.449
			l14.516-3.123C748.242,132.461,755.088,121.865,752.773,111.109z"/>
	</g>
</g>
</svg>
