<?xml version="1.0" encoding="utf-8"?>
<!-- Generator: Adobe Illustrator 15.1.0, SVG Export Plug-In . SVG Version: 6.00 Build 0)  -->
<!DOCTYPE svg PUBLIC "-//W3C//DTD SVG 1.1//EN" "http://www.w3.org/Graphics/SVG/1.1/DTD/svg11.dtd">
<svg version="1.1" id="Layer_1" xmlns="http://www.w3.org/2000/svg" xmlns:xlink="http://www.w3.org/1999/xlink" x="0px" y="0px"
	 width="32px" height="32px" viewBox="0 0 32 32" enable-background="new 0 0 32 32" xml:space="preserve">
<path display="none" fill="#DBDBDB" d="M18,22.082v-1.648c2.203-1.242,4-4.336,4-7.433c0-4.971,0-9-6-9s-6,4.029-6,9
	c0,3.096,1.797,6.19,4,7.433v1.648C7.216,22.637,2,25.971,2,30h28C30,25.971,24.784,22.636,18,22.082z"/>
<g>
	<g>
		<path fill="#DBDBDB" d="M16,20.161l-3.604-3.153L2.094,25.839c0.375,0.348,0.88,0.563,1.438,0.563h24.937
			c0.555,0,1.059-0.216,1.432-0.563l-10.297-8.831L16,20.161z"/>
		<path fill="#DBDBDB" d="M29.905,6.162c-0.374-0.35-0.878-0.564-1.437-0.564H3.532c-0.556,0-1.06,0.216-1.434,0.568L16,18.08
			L29.905,6.162z"/>
		<polygon fill="#DBDBDB" points="1.437,7.424 1.437,24.71 11.492,16.165 		"/>
		<polygon fill="#DBDBDB" points="20.508,16.165 30.563,24.71 30.563,7.418 		"/>
	</g>
</g>
</svg>
