<?xml version="1.0" encoding="utf-8"?>
<!-- Generator: Adobe Illustrator 15.1.0, SVG Export Plug-In  -->
<!DOCTYPE svg PUBLIC "-//W3C//DTD SVG 1.1//EN" "http://www.w3.org/Graphics/SVG/1.1/DTD/svg11.dtd" [
	<!ENTITY ns_flows "http://ns.adobe.com/Flows/1.0/">
]>
<svg version="1.1"
	 xmlns="http://www.w3.org/2000/svg" xmlns:xlink="http://www.w3.org/1999/xlink" xmlns:a="http://ns.adobe.com/AdobeSVGViewerExtensions/3.0/"
	 x="0px" y="0px" width="512px" height="512px" viewBox="0 -20.775 512 512" enable-background="new 0 -20.775 512 512"
	 xml:space="preserve">
<defs>
</defs>
<path fill="#0070BE" d="M480.321,128.463l-31.767-30.522L281.349,271.973c-4.158,4.335-9.909,6.789-15.917,6.799
	c-0.008,0-0.022,0-0.029,0c-6.001,0-11.745-2.442-15.91-6.754l-87.17-90.29L38.149,312.432c-4.342,4.579-10.188,6.887-16.035,6.887
	c-5.47,0-10.948-2.014-15.231-6.083c-8.854-8.411-9.215-22.412-0.796-31.265l140.075-147.448c4.151-4.371,9.916-6.864,15.946-6.885
	c0.029,0,0.059,0,0.089,0c6,0,11.745,2.44,15.909,6.753l87.259,90.385L416.668,67.302L384.9,36.78L512,0L480.321,128.463z
	 M22.114,348.807c-5.087,0-10.026-0.736-14.745-2.139v123.782h66.351v-152.68l-14.229,14.965
	C49.834,342.985,36.195,348.807,22.114,348.807z M88.465,470.451h66.351V232.398l-66.351,69.816V470.451z M228.319,292.484
	l-58.757-60.823v238.79h66.351V298.969C233.185,297.053,230.678,294.917,228.319,292.484z M265.475,308.26
	c-5.086,0-10.027-0.738-14.818-2.211v164.402h66.352V277.444l-14.376,14.967C292.975,302.436,279.411,308.26,265.475,308.26z
	 M331.754,262.108v208.343h66.35V193.03L331.754,262.108z M449.416,139.654l-36.566,38.042v292.755H479.2V168.259L449.416,139.654z"
	/>
</svg>
