<?xml version="1.0" encoding="utf-8"?>
<!-- Generator: Adobe Illustrator 15.1.0, SVG Export Plug-In  -->
<!DOCTYPE svg PUBLIC "-//W3C//DTD SVG 1.1//EN" "http://www.w3.org/Graphics/SVG/1.1/DTD/svg11.dtd" [
	<!ENTITY ns_flows "http://ns.adobe.com/Flows/1.0/">
]>
<svg version="1.1"
	 xmlns="http://www.w3.org/2000/svg" xmlns:xlink="http://www.w3.org/1999/xlink" xmlns:a="http://ns.adobe.com/AdobeSVGViewerExtensions/3.0/"
	 x="0px" y="0px" width="512px" height="512px" viewBox="-34.87 0 512 512" enable-background="new -34.87 0 512 512"
	 xml:space="preserve">
<defs>
</defs>
<circle fill="#0070BE" cx="413.13" cy="477.572" r="29.13"/>
<circle fill="#0070BE" cx="413.13" cy="244.524" r="29.13"/>
<circle fill="#0070BE" cx="413.13" cy="40.607" r="29.131"/>
<path fill="#0070BE" d="M296.606,25.6c-8.288,0-15.006,6.72-15.006,15.006v188.911h-14.124c-8.289,0-15.007,6.72-15.007,15.006
	c0,8.289,6.718,15.007,15.007,15.007H281.6v218.041c0,8.288,6.72,15.006,15.006,15.006h64.819
	c-1.386-4.767-2.145-9.799-2.145-15.006c0-5.208,0.759-10.24,2.145-15.007h-49.813V259.531h49.813
	c-1.386-4.767-2.145-9.799-2.145-15.007s0.759-10.24,2.145-15.006h-49.813V55.613h49.813c-1.386-4.767-2.145-9.799-2.145-15.007
	s0.759-10.24,2.145-15.006H296.606L296.606,25.6z"/>
<path fill="#0070BE" d="M101.845,119.5c32.947,0,59.75-26.803,59.75-59.75S134.79,0,101.845,0c-32.946,0-59.75,26.803-59.75,59.75
	S68.897,119.5,101.845,119.5z"/>
<path fill="#0070BE" d="M167.47,148.456l-0.1-0.033l-17.053-5.232c-2.689-0.827-5.563,0.597-6.53,3.25l-35.86,98.389
	c-2.069,5.677-10.097,5.677-12.166,0l-35.859-98.39c-0.781-2.143-2.803-3.486-4.97-3.486c-0.514,0-1.036,0.076-1.553,0.234
	l-17.039,5.227C14.555,155.674,0,175.868,0,198.704v104.081c0,1.033,0.301,2.043,0.869,2.906l37.417,56.939v144.07
	c0,2.925,2.37,5.295,5.296,5.295h116.524c2.925,0,5.296-2.372,5.296-5.295v-144.07l37.416-56.939
	c0.567-0.863,0.871-1.873,0.871-2.906V198.432C203.689,175.695,189.078,155.533,167.47,148.456z"/>
<path fill="#0070BE" d="M114.657,140.45c-1.355-1.476-3.336-2.219-5.341-2.219H94.37c-2.005,0-3.985,0.743-5.34,2.219
	c-2.098,2.286-2.401,5.587-0.914,8.168l7.99,12.045l-3.741,31.551l7.365,19.592c0.719,1.97,3.505,1.97,4.224,0l7.364-19.592
	l-3.741-31.551l7.99-12.045C117.06,146.037,116.755,142.736,114.657,140.45L114.657,140.45z"/>
</svg>
