<?xml version="1.0" encoding="utf-8"?>
<!-- Generator: Adobe Illustrator 15.1.0, SVG Export Plug-In  -->
<!DOCTYPE svg PUBLIC "-//W3C//DTD SVG 1.1//EN" "http://www.w3.org/Graphics/SVG/1.1/DTD/svg11.dtd" [
	<!ENTITY ns_flows "http://ns.adobe.com/Flows/1.0/">
]>
<svg version="1.1"
	 xmlns="http://www.w3.org/2000/svg" xmlns:xlink="http://www.w3.org/1999/xlink" xmlns:a="http://ns.adobe.com/AdobeSVGViewerExtensions/3.0/"
	 x="0px" y="0px" width="512px" height="512px" viewBox="0 -16.288 512 512" enable-background="new 0 -16.288 512 512"
	 xml:space="preserve">
<defs>
</defs>
<path fill="#0070BE" d="M512,451.495v27.929H0V0h27.927v451.493H512V451.495z M111.134,377.015h13.965v-62.838h12.796V165.241
	h-12.796V100.08h-13.965v65.161H98.331v148.938h12.805L111.134,377.015L111.134,377.015z M190.251,285.085h13.964v-64.001h12.804
	V72.142h-12.804v-64h-13.964v64h-12.796v148.941h12.796V285.085z M268.795,331.631h13.965V269.97h12.797V121.014H282.76V54.688
	h-13.965v66.325h-12.804v148.942h12.804V331.631z M357.812,357.814h13.968v-62.257h12.8V146.617h-12.8V80.87h-13.968v65.748h-12.795
	V295.56h12.795V357.814z M449.162,285.679h13.963v-64.584h12.797V72.142h-12.797V8.729h-13.963v63.415h-12.804v148.941h12.804
	V285.679z"/>
</svg>
