<?xml version="1.0" encoding="utf-8"?>
<!-- Generator: Adobe Illustrator 15.1.0, SVG Export Plug-In  -->
<!DOCTYPE svg PUBLIC "-//W3C//DTD SVG 1.1//EN" "http://www.w3.org/Graphics/SVG/1.1/DTD/svg11.dtd" [
	<!ENTITY ns_flows "http://ns.adobe.com/Flows/1.0/">
]>
<svg version="1.1"
	 xmlns="http://www.w3.org/2000/svg" xmlns:xlink="http://www.w3.org/1999/xlink" xmlns:a="http://ns.adobe.com/AdobeSVGViewerExtensions/3.0/"
	 x="0px" y="0px" width="512px" height="512px" viewBox="0 0 512 512" enable-background="new 0 0 512 512" xml:space="preserve">
<defs>
</defs>
<path fill="#0070BE" d="M360.9,133L464,160.1L490,57l-19.8-5.2l-16.9,64.3C410.1,46.4,333,0,245,0C109.7,0,0,109.7,0,245
	s109.7,245,245,245c90.3,0,169.1-48.8,211.6-121.5l-17.698-9.6C399.8,425.3,327.6,469.9,245,469.9C120.8,469.9,20.1,369.2,20.1,245
	S120.8,20.1,245,20.1c83.3,0,156.1,45.3,194.9,112.7L366.1,113.2L360.9,133z"/>
<path fill="#0070BE" d="M255.8,353.7V335c17.7-1,31.2-6.2,41.601-15.6C307.8,310,313,297.5,313,283c0-15.6-4.2-27.1-13.5-34.4
	c-9.4-8.3-22.9-14.6-42.7-18.7h-1V182c13.5,2.1,25,6.2,36.4,14.6l16.7-22.9C292.2,162.2,274.5,156,255.8,155v-12.5h-15.6V155
	c-15.6,1-29.2,6.2-39.6,15.6S185,192.5,185,207s4.2,26,13.5,33.3c8.3,7.3,22.9,13.5,41.6,17.7v48.9c-14.6-2.102-29.2-9.4-43.7-21.9
	l-18.7,21.9c18.7,16.699,39.6,26,62.5,28.1v18.7H255.8L255.8,353.7z M256.8,263.1c10.4,3.102,16.7,6.2,20.8,9.4
	c3.102,4.2,5.2,8.3,5.2,14.6c0,6.301-2.1,10.4-7.3,14.602s-11.5,6.199-18.7,7.3V263.1z M220.4,218.4c-3.1-3.1-5.2-8.3-5.2-13.5
	c0-6.2,2.1-10.4,6.2-14.6c5.2-4.2,10.4-6.2,18.7-7.3v44.8C229.7,224.6,223.5,221.5,220.4,218.4z"/>
</svg>
