<?xml version="1.0" encoding="utf-8"?>
<!-- Generator: Adobe Illustrator 15.1.0, SVG Export Plug-In . SVG Version: 6.00 Build 0)  -->
<!DOCTYPE svg PUBLIC "-//W3C//DTD SVG 1.1//EN" "http://www.w3.org/Graphics/SVG/1.1/DTD/svg11.dtd">
<svg version="1.1" id="Layer_1" xmlns="http://www.w3.org/2000/svg" xmlns:xlink="http://www.w3.org/1999/xlink" x="0px" y="0px"
	 width="266.853px" height="72.098px" viewBox="15.973 22.982 266.853 72.098"
	 enable-background="new 15.973 22.982 266.853 72.098" xml:space="preserve">
<g id="Layer_2">
</g>
<g>
	<path fill="#28A64A" d="M175.269,88.938"/>
	<polyline fill="#28A64A" points="276.329,88.948 276.329,88.938 276.316,88.938 275.939,88.938 	"/>
	<path opacity="0.61" fill="#28A64A" enable-background="new    " d="M150.794,88.938"/>
	<path opacity="0.61" fill="#28A64A" enable-background="new    " d="M173.324,88.938"/>
	<path opacity="0.35" fill="#28A64A" enable-background="new    " d="M137.581,88.938"/>
	<path opacity="0.35" fill="#28A64A" enable-background="new    " d="M148.813,88.938"/>
	<path opacity="0.35" fill="#28A64A" enable-background="new    " d="M124.223,88.938"/>
	<path opacity="0.35" fill="#28A64A" enable-background="new    " d="M135.456,88.938"/>
	<path opacity="0.25" fill="#28A64A" enable-background="new    " d="M110.605,88.938"/>
	<path opacity="0.25" fill="#28A64A" enable-background="new    " d="M121.838,88.938"/>
	<path opacity="0.15" fill="#28A64A" enable-background="new    " d="M97.118,88.938"/>
	<path opacity="0.15" fill="#28A64A" enable-background="new    " d="M108.351,88.938"/>
	<g>
		<path fill="#333333" d="M104.126,83.891h-1.423V72.916h-3.875v-1.265h9.175v1.265h-3.875L104.126,83.891L104.126,83.891z"/>
		<path fill="#333333" d="M115.914,83.891v-5.935c0-0.748-0.17-1.308-0.511-1.675c-0.341-0.368-0.874-0.553-1.599-0.553
			c-0.966,0-1.67,0.263-2.114,0.787c-0.443,0.524-0.666,1.384-0.666,2.578v4.797h-1.389V70.865h1.389v3.943
			c0,0.473-0.022,0.866-0.066,1.18h0.084c0.273-0.44,0.663-0.788,1.167-1.043c0.505-0.253,1.082-0.38,1.729-0.38
			c1.122,0,1.963,0.267,2.524,0.799c0.561,0.533,0.841,1.379,0.841,2.541v5.985H115.914z"/>
		<path fill="#333333" d="M120.041,72.229c0-0.318,0.078-0.552,0.234-0.699c0.157-0.147,0.352-0.222,0.586-0.222
			c0.224,0,0.416,0.076,0.578,0.226c0.162,0.15,0.243,0.383,0.243,0.695s-0.081,0.545-0.243,0.698
			c-0.162,0.154-0.355,0.231-0.578,0.231c-0.234,0-0.429-0.077-0.586-0.231C120.119,72.774,120.041,72.542,120.041,72.229z
			 M121.548,83.891h-1.39v-9.175h1.39V83.891z"/>
		<path fill="#333333" d="M130.773,83.891v-5.935c0-0.748-0.17-1.308-0.511-1.675c-0.341-0.368-0.874-0.553-1.599-0.553
			c-0.96,0-1.664,0.26-2.11,0.778c-0.446,0.52-0.669,1.377-0.669,2.57v4.814h-1.39v-9.176h1.131l0.227,1.256h0.067
			c0.285-0.452,0.683-0.802,1.197-1.051c0.514-0.248,1.085-0.373,1.717-0.373c1.105,0,1.937,0.267,2.495,0.799
			c0.558,0.534,0.837,1.386,0.837,2.558v5.986H130.773L130.773,83.891z"/>
		<path fill="#333333" d="M136.391,79.194c0.24-0.341,0.606-0.787,1.097-1.339l2.964-3.14h1.649l-3.717,3.908l3.976,5.267h-1.683
			l-3.24-4.336l-1.046,0.904v3.432h-1.373V70.865h1.373v6.906c0,0.308-0.022,0.781-0.067,1.423H136.391z"/>
		<path fill="#333333" d="M148.539,71.651h3.81c1.735,0,2.996,0.246,3.779,0.741c0.784,0.494,1.176,1.28,1.176,2.356
			c0,0.73-0.172,1.331-0.515,1.799c-0.343,0.47-0.799,0.751-1.369,0.847v0.082c0.776,0.175,1.335,0.498,1.679,0.972
			c0.343,0.474,0.515,1.104,0.515,1.893c0,1.116-0.403,1.987-1.209,2.612c-0.807,0.625-1.902,0.938-3.286,0.938h-4.579V71.651
			L148.539,71.651z M151.133,76.498h1.507c0.703,0,1.212-0.108,1.527-0.326c0.315-0.218,0.473-0.578,0.473-1.08
			c0-0.469-0.172-0.805-0.515-1.009c-0.343-0.203-0.886-0.307-1.628-0.307h-1.364V76.498L151.133,76.498z M151.133,78.559v3.19
			h1.691c0.714,0,1.242-0.138,1.582-0.41c0.34-0.273,0.51-0.693,0.51-1.256c0-1.017-0.726-1.524-2.176-1.524H151.133L151.133,78.559
			z"/>
		<path fill="#333333" d="M160.058,83.891V71.651h2.595v12.239H160.058z"/>
		<path fill="#333333" d="M170.38,77.018h4.855v6.346c-0.787,0.257-1.527,0.438-2.223,0.54c-0.695,0.103-1.405,0.154-2.13,0.154
			c-1.847,0-3.258-0.543-4.231-1.628c-0.974-1.087-1.46-2.645-1.46-4.676c0-1.977,0.565-3.518,1.695-4.622
			c1.131-1.104,2.697-1.656,4.701-1.656c1.256,0,2.467,0.25,3.634,0.753l-0.863,2.076c-0.893-0.446-1.822-0.67-2.788-0.67
			c-1.122,0-2.021,0.377-2.695,1.13c-0.675,0.755-1.013,1.767-1.013,3.04c0,1.328,0.272,2.343,0.816,3.042
			c0.544,0.7,1.335,1.052,2.373,1.052c0.542,0,1.091-0.056,1.65-0.168v-2.554h-2.319v-2.159H170.38z"/>
		<path fill="#28A64A" d="M186.513,83.891h-1.423V72.916h-3.876v-1.265h9.176v1.265h-3.876L186.513,83.891L186.513,83.891z"/>
		<path fill="#28A64A" d="M196.207,74.548c0.407,0,0.772,0.034,1.096,0.101l-0.192,1.29c-0.38-0.083-0.714-0.126-1.005-0.126
			c-0.742,0-1.377,0.301-1.905,0.903c-0.527,0.604-0.791,1.354-0.791,2.254v4.922h-1.39v-9.176h1.147l0.159,1.7h0.067
			c0.34-0.598,0.75-1.058,1.231-1.382C195.104,74.711,195.632,74.548,196.207,74.548z"/>
		<path fill="#28A64A" d="M204.663,83.891l-0.276-1.307h-0.067c-0.458,0.575-0.914,0.965-1.368,1.168
			c-0.455,0.204-1.022,0.306-1.704,0.306c-0.91,0-1.622-0.234-2.139-0.702c-0.517-0.468-0.774-1.136-0.774-2
			c0-1.854,1.482-2.825,4.446-2.913l1.557-0.051v-0.569c0-0.721-0.155-1.251-0.464-1.596c-0.31-0.343-0.806-0.515-1.487-0.515
			c-0.765,0-1.63,0.234-2.595,0.703l-0.427-1.063c0.452-0.245,0.948-0.438,1.486-0.578c0.539-0.14,1.079-0.209,1.62-0.209
			c1.094,0,1.905,0.243,2.432,0.729c0.527,0.484,0.792,1.263,0.792,2.334v6.263L204.663,83.891L204.663,83.891z M201.522,82.912
			c0.865,0,1.544-0.237,2.039-0.712c0.494-0.474,0.74-1.139,0.74-1.992V79.38l-1.389,0.058c-1.105,0.039-1.902,0.211-2.391,0.515
			c-0.488,0.305-0.732,0.777-0.732,1.419c0,0.503,0.152,0.885,0.456,1.146C200.55,82.781,200.976,82.912,201.522,82.912z"/>
		<path fill="#28A64A" d="M214.8,82.659h-0.076c-0.642,0.934-1.602,1.398-2.879,1.398c-1.2,0-2.134-0.409-2.801-1.229
			c-0.667-0.82-1-1.988-1-3.499c0-1.514,0.334-2.688,1.004-3.524c0.67-0.838,1.602-1.257,2.796-1.257
			c1.245,0,2.199,0.453,2.863,1.356h0.109l-0.059-0.661l-0.034-0.645v-3.733h1.39v13.025h-1.131L214.8,82.659z M212.021,82.895
			c0.948,0,1.637-0.258,2.063-0.773c0.427-0.517,0.64-1.35,0.64-2.5v-0.292c0-1.302-0.216-2.229-0.649-2.784
			s-1.123-0.833-2.072-0.833c-0.815,0-1.439,0.316-1.872,0.95c-0.433,0.633-0.648,1.527-0.648,2.685
			c0,1.171,0.215,2.056,0.645,2.652C210.558,82.596,211.189,82.895,212.021,82.895z"/>
		<path fill="#28A64A" d="M222.938,84.058c-1.356,0-2.427-0.412-3.21-1.238c-0.784-0.826-1.177-1.973-1.177-3.441
			c0-1.479,0.364-2.653,1.093-3.524c0.729-0.87,1.706-1.306,2.934-1.306c1.15,0,2.06,0.378,2.729,1.134
			c0.67,0.757,1.004,1.754,1.004,2.993v0.88h-6.321c0.028,1.077,0.3,1.895,0.817,2.453c0.516,0.558,1.243,0.836,2.181,0.836
			c0.988,0,1.964-0.206,2.931-0.619v1.238c-0.491,0.213-0.957,0.365-1.395,0.458C224.086,84.013,223.557,84.058,222.938,84.058z
			 M222.561,75.712c-0.737,0-1.325,0.24-1.763,0.721s-0.696,1.145-0.774,1.992h4.797c0-0.876-0.195-1.547-0.586-2.014
			C223.845,75.945,223.287,75.712,222.561,75.712z"/>
		<path fill="#28A64A" d="M234.768,83.891h-1.423V71.651h6.823v1.265h-5.399v4.479h5.074v1.264h-5.074L234.768,83.891
			L234.768,83.891z"/>
		<path fill="#28A64A" d="M249.903,79.295c0,1.496-0.376,2.664-1.13,3.504c-0.753,0.839-1.794,1.259-3.123,1.259
			c-0.82,0-1.548-0.191-2.185-0.577c-0.637-0.385-1.127-0.938-1.474-1.657c-0.346-0.72-0.519-1.563-0.519-2.528
			c0-1.496,0.373-2.661,1.122-3.495c0.748-0.834,1.786-1.252,3.114-1.252c1.284,0,2.303,0.428,3.06,1.281
			C249.524,76.683,249.903,77.839,249.903,79.295z M242.913,79.295c0,1.172,0.235,2.065,0.704,2.679
			c0.469,0.614,1.158,0.921,2.067,0.921s1.601-0.305,2.072-0.916c0.472-0.612,0.708-1.507,0.708-2.684
			c0-1.166-0.236-2.052-0.708-2.657c-0.471-0.606-1.167-0.909-2.088-0.909c-0.91,0-1.596,0.299-2.059,0.896
			C243.144,77.222,242.913,78.112,242.913,79.295z"/>
		<path fill="#28A64A" d="M256.525,74.548c0.407,0,0.773,0.034,1.096,0.101l-0.192,1.29c-0.38-0.083-0.714-0.126-1.004-0.126
			c-0.743,0-1.377,0.301-1.905,0.903c-0.527,0.604-0.792,1.354-0.792,2.254v4.922h-1.389v-9.176h1.146l0.159,1.7h0.067
			c0.34-0.598,0.75-1.058,1.231-1.382C255.423,74.711,255.95,74.548,256.525,74.548z"/>
		<path fill="#28A64A" d="M263.214,84.058c-1.356,0-2.427-0.412-3.21-1.238c-0.784-0.826-1.177-1.973-1.177-3.441
			c0-1.479,0.365-2.653,1.093-3.524c0.729-0.87,1.707-1.306,2.935-1.306c1.149,0,2.059,0.378,2.729,1.134
			c0.669,0.757,1.004,1.754,1.004,2.993v0.88h-6.321c0.028,1.077,0.3,1.895,0.816,2.453c0.517,0.558,1.243,0.836,2.181,0.836
			c0.989,0,1.964-0.206,2.931-0.619v1.238c-0.491,0.213-0.957,0.365-1.395,0.458C264.363,84.013,263.834,84.058,263.214,84.058z
			 M262.837,75.712c-0.737,0-1.324,0.24-1.762,0.721c-0.438,0.48-0.697,1.145-0.774,1.992h4.797c0-0.876-0.195-1.547-0.586-2.014
			C264.122,75.945,263.563,75.712,262.837,75.712z"/>
		<path fill="#28A64A" d="M271.167,79.194l-3.189-4.479h1.582l2.419,3.516l2.411-3.516h1.566l-3.19,4.479l3.357,4.696h-1.574
			l-2.57-3.717l-2.595,3.717h-1.575L271.167,79.194z"/>
	</g>
	<g>
		<g id="Layer_1_1_">
			<g>
				<defs>
					<rect id="SVGID_1_" x="92.887" y="23.946" width="192.939" height="41.975"/>
				</defs>
				<clipPath id="SVGID_2_">
					<use xlink:href="#SVGID_1_"  overflow="visible"/>
				</clipPath>
				<polygon clip-path="url(#SVGID_2_)" fill="#2A88C9" points="104.802,64.241 99.431,64.241 99.431,38.497 114.187,38.497 
					114.187,42.971 104.802,42.971 104.802,49.608 113.535,49.608 113.535,54.063 104.802,54.063 				"/>
			</g>
			<g>
				<defs>
					<rect id="SVGID_3_" x="92.887" y="23.946" width="192.939" height="41.975"/>
				</defs>
				<clipPath id="SVGID_4_">
					<use xlink:href="#SVGID_3_"  overflow="visible"/>
				</clipPath>
				<g clip-path="url(#SVGID_4_)">
					<g>
						<defs>
							<rect id="SVGID_5_" x="92.887" y="23.946" width="192.939" height="41.975"/>
						</defs>
						<defs>
							<rect id="SVGID_6_" x="92.887" y="23.946" width="192.939" height="41.975"/>
						</defs>
						<defs>
							<rect id="SVGID_7_" x="92.887" y="23.946" width="192.939" height="41.975"/>
						</defs>
						<defs>
							<rect id="SVGID_8_" x="92.887" y="23.946" width="192.939" height="41.975"/>
						</defs>
						<defs>
							<rect id="SVGID_9_" x="92.887" y="23.946" width="192.939" height="41.975"/>
						</defs>
						<defs>
							<rect id="SVGID_10_" x="92.887" y="23.946" width="192.939" height="41.975"/>
						</defs>
						<defs>
							<rect id="SVGID_11_" x="92.887" y="23.946" width="192.939" height="41.975"/>
						</defs>
						<defs>
							<rect id="SVGID_12_" x="92.887" y="23.946" width="192.939" height="41.975"/>
						</defs>
						<defs>
							<rect id="SVGID_13_" x="92.887" y="23.946" width="192.939" height="41.975"/>
						</defs>
						<defs>
							<rect id="SVGID_14_" x="92.887" y="23.946" width="192.939" height="41.975"/>
						</defs>
						<clipPath id="SVGID_15_">
							<use xlink:href="#SVGID_5_"  overflow="visible"/>
						</clipPath>
						<clipPath id="SVGID_16_" clip-path="url(#SVGID_15_)">
							<use xlink:href="#SVGID_6_"  overflow="visible"/>
						</clipPath>
						<clipPath id="SVGID_17_" clip-path="url(#SVGID_16_)">
							<use xlink:href="#SVGID_7_"  overflow="visible"/>
						</clipPath>
						<clipPath id="SVGID_18_" clip-path="url(#SVGID_17_)">
							<use xlink:href="#SVGID_8_"  overflow="visible"/>
						</clipPath>
						<clipPath id="SVGID_19_" clip-path="url(#SVGID_18_)">
							<use xlink:href="#SVGID_9_"  overflow="visible"/>
						</clipPath>
						<clipPath id="SVGID_20_" clip-path="url(#SVGID_19_)">
							<use xlink:href="#SVGID_10_"  overflow="visible"/>
						</clipPath>
						<clipPath id="SVGID_21_" clip-path="url(#SVGID_20_)">
							<use xlink:href="#SVGID_11_"  overflow="visible"/>
						</clipPath>
						<clipPath id="SVGID_22_" clip-path="url(#SVGID_21_)">
							<use xlink:href="#SVGID_12_"  overflow="visible"/>
						</clipPath>
						<clipPath id="SVGID_23_" clip-path="url(#SVGID_22_)">
							<use xlink:href="#SVGID_13_"  overflow="visible"/>
						</clipPath>
						<clipPath id="SVGID_24_" clip-path="url(#SVGID_23_)">
							<use xlink:href="#SVGID_14_"  overflow="visible"/>
						</clipPath>
						<path clip-path="url(#SVGID_24_)" fill="#2A88C9" d="M136.689,54.36c0,3.207-0.845,5.713-2.535,7.521
							c-1.689,1.807-4.043,2.711-7.06,2.711c-1.891,0-3.557-0.414-5.001-1.242c-1.443-0.827-2.553-2.016-3.327-3.564
							c-0.775-1.55-1.163-3.357-1.163-5.426c0-3.213,0.839-5.715,2.518-7.498c1.678-1.785,4.039-2.677,7.079-2.677
							c1.89,0,3.557,0.41,5.001,1.232c1.443,0.822,2.553,2.001,3.328,3.539C136.301,50.496,136.689,52.297,136.689,54.36
							 M123.078,54.36c0,1.951,0.32,3.423,0.959,4.422c0.64,0.997,1.683,1.497,3.125,1.497c1.432,0,2.462-0.497,3.09-1.488
							c0.629-0.993,0.943-2.469,0.943-4.431c0-1.946-0.317-3.409-0.951-4.382c-0.633-0.975-1.673-1.462-3.117-1.462
							c-1.432,0-2.464,0.485-3.099,1.453C123.396,50.936,123.078,52.402,123.078,54.36"/>
						<path clip-path="url(#SVGID_24_)" fill="#2A88C9" d="M152.113,44.185c0.728,0,1.332,0.052,1.814,0.158l-0.405,5.037
							c-0.435-0.116-0.962-0.177-1.584-0.177c-1.715,0-3.049,0.439-4.006,1.32c-0.957,0.881-1.436,2.114-1.436,3.698v10.019h-5.37
							V44.555h4.068l0.792,3.311h0.265c0.609-1.103,1.435-1.993,2.473-2.668C149.763,44.522,150.892,44.185,152.113,44.185"/>
						<path clip-path="url(#SVGID_24_)" fill="#2A88C9" d="M166.411,64.592c-3.17,0-5.646-0.873-7.431-2.621
							c-1.783-1.751-2.675-4.228-2.675-7.433c0-3.297,0.825-5.847,2.474-7.65c1.649-1.802,3.93-2.703,6.841-2.703
							c2.781,0,4.947,0.792,6.496,2.376c1.551,1.585,2.324,3.775,2.324,6.567v2.607h-12.694c0.06,1.524,0.512,2.717,1.356,3.573
							c0.844,0.857,2.031,1.285,3.557,1.285c1.186,0,2.308-0.124,3.364-0.37c1.058-0.245,2.159-0.638,3.31-1.18v4.156
							c-0.94,0.47-1.943,0.818-3.01,1.048C169.251,64.479,167.949,64.592,166.411,64.592 M165.655,48.006
							c-1.139,0-2.031,0.361-2.678,1.082c-0.646,0.723-1.014,1.748-1.108,3.073h7.535c-0.023-1.325-0.37-2.351-1.037-3.073
							C167.696,48.367,166.792,48.006,165.655,48.006"/>
						<polygon clip-path="url(#SVGID_24_)" fill="#2A88C9" points="182.838,54.188 176.5,44.555 182.592,44.555 186.412,50.823 
							190.27,44.555 196.361,44.555 189.951,54.188 196.659,64.241 190.549,64.241 186.412,57.496 182.258,64.241 176.165,64.241 
													"/>
						<path clip-path="url(#SVGID_24_)" fill="#2A88C9" d="M242.837,64.25l-1.043-2.676h-0.134c-0.902,1.129-1.83,1.924-2.79,2.364
							c-0.966,0.438-2.208,0.657-3.743,0.657c-1.893,0-3.384-0.542-4.463-1.613c-1.086-1.086-1.632-2.626-1.632-4.613
							c0-2.091,0.733-3.634,2.195-4.629c1.468-0.988,3.665-1.538,6.613-1.642l3.408-0.106V51.13c0-1.995-1.016-2.997-3.063-2.997
							c-1.565,0-3.415,0.483-5.544,1.43l-1.772-3.626c2.263-1.184,4.774-1.778,7.533-1.778c2.639,0,4.666,0.573,6.072,1.721
							c1.401,1.152,2.116,2.903,2.116,5.25v13.12H242.837L242.837,64.25z M241.248,55.123l-2.068,0.073
							c-1.565,0.05-2.722,0.329-3.486,0.848c-0.764,0.517-1.151,1.299-1.151,2.362c0,1.51,0.872,2.268,2.613,2.268
							c1.244,0,2.245-0.356,2.979-1.072c0.747-0.721,1.116-1.667,1.116-2.852L241.248,55.123L241.248,55.123z"/>
						<path clip-path="url(#SVGID_24_)" fill="#2A88C9" d="M263.109,44.194c0.721,0,1.329,0.05,1.807,0.155l-0.405,5.035
							c-0.432-0.115-0.958-0.176-1.577-0.176c-1.724,0-3.052,0.444-4.003,1.324c-0.964,0.877-1.445,2.111-1.445,3.698v10.02h-5.368
							V44.563h4.068l0.789,3.309h0.264c0.613-1.099,1.437-1.994,2.479-2.667C260.756,44.528,261.885,44.194,263.109,44.194"/>
						<path clip-path="url(#SVGID_24_)" fill="#2A88C9" d="M276.792,60.321c0.935,0,2.057-0.204,3.374-0.618v4
							c-1.335,0.595-2.979,0.893-4.927,0.893c-2.153,0-3.712-0.542-4.695-1.622c-0.98-1.093-1.473-2.721-1.473-4.891v-9.484h-2.566
							v-2.278l2.96-1.794l1.546-4.155h3.434v4.19h5.507v4.037h-5.507v9.484c0,0.764,0.212,1.33,0.644,1.695
							C275.52,60.14,276.085,60.321,276.792,60.321"/>
						<path clip-path="url(#SVGID_24_)" fill="#2A88C9" d="M216.853,38.504l-6.458,19.689h-0.111l-6.09-19.689h-2.771l-4.658,7.03
							V64.25h4.872V52.271c0-1.371-0.111-4.111-0.328-8.217h0.158l6.192,20.196h4.998l6.647-20.163h0.152
							c-0.14,3.24-0.219,5.232-0.239,5.987c-0.016,0.749-0.028,1.413-0.028,1.99V64.25h5.094V38.504H216.853z"/>
						<polygon clip-path="url(#SVGID_24_)" fill="#2A88C9" points="198.589,31.355 202.986,34.144 188.853,56.488 185.973,51.287 
													"/>
						<polygon clip-path="url(#SVGID_24_)" fill="#2A88C9" points="194.484,31.339 205.025,25.274 205.006,37.437 						"/>
					</g>
				</g>
			</g>
			<path fill="none" stroke="#2986C8" stroke-miterlimit="10" d="M90.569,59.033c0,19.624-15.922,35.547-35.543,35.547
				c-19.636,0-35.553-15.923-35.553-35.547c0-19.633,15.917-35.551,35.552-35.551C74.646,23.483,90.569,39.4,90.569,59.033z"/>
			<path fill="#2986C8" d="M79.293,34.984l-0.008,9.997l-2.151-1.244L62.913,65.133l6.493,9.732h-5.917l-4-6.517l-4.02,6.517H49.57
				l6.457-9.732l-6.129-9.313h5.894L59.19,61.4l13.43-20.278l-2.025-1.175l8.681-4.994c-6.224-6.301-14.849-10.211-24.409-10.211
				c-18.938,0-34.287,15.352-34.287,34.291c0,10.832,5.031,20.476,12.875,26.765V49.731h14.357v4.353h-9.133v6.457h8.499v4.34
				h-8.499v24.383c4.823,2.574,10.333,4.054,16.188,4.054c18.939,0,34.291-15.351,34.291-34.284
				C89.158,49.658,85.397,41.171,79.293,34.984z"/>
		</g>
	</g>
</g>
</svg>
