<?xml version="1.0" encoding="utf-8"?>
<!-- Generator: Adobe Illustrator 15.1.0, SVG Export Plug-In . SVG Version: 6.00 Build 0)  -->
<!DOCTYPE svg PUBLIC "-//W3C//DTD SVG 1.1//EN" "http://www.w3.org/Graphics/SVG/1.1/DTD/svg11.dtd">
<svg version="1.1" id="Layer_1" xmlns="http://www.w3.org/2000/svg" xmlns:xlink="http://www.w3.org/1999/xlink" x="0px" y="0px"
	 width="254.366px" height="79px" viewBox="0 0 254.366 79" enable-background="new 0 0 254.366 79" xml:space="preserve">
<g>
	<defs>
		<rect id="SVGID_1_" width="254.366" height="79"/>
	</defs>
	<clipPath id="SVGID_2_">
		<use xlink:href="#SVGID_1_"  overflow="visible"/>
	</clipPath>
	<polygon clip-path="url(#SVGID_2_)" fill="#28A64A" points="244.615,63.839 244.259,63.839 148.576,63.839 154.691,71.42 
		148.576,79 244.259,79 244.615,79 244.628,79 244.628,78.989 254.366,71.42 244.628,63.849 244.628,63.839 	"/>
	<g clip-path="url(#SVGID_2_)">
		<defs>
			<rect id="SVGID_3_" width="254.366" height="79"/>
		</defs>
		<clipPath id="SVGID_4_">
			<use xlink:href="#SVGID_3_"  overflow="visible"/>
		</clipPath>
		<g opacity="0.61" clip-path="url(#SVGID_4_)" enable-background="new    ">
			<g>
				<defs>
					<rect id="SVGID_5_" x="125.315" y="63.839" width="27.527" height="15.161"/>
				</defs>
				<clipPath id="SVGID_6_">
					<use xlink:href="#SVGID_5_"  overflow="visible"/>
				</clipPath>
				<polygon clip-path="url(#SVGID_6_)" fill="#28A64A" points="146.728,63.839 125.314,63.839 131.428,71.419 125.314,79 
					146.728,79 152.842,71.419 				"/>
			</g>
		</g>
		<g opacity="0.35" clip-path="url(#SVGID_4_)" enable-background="new    ">
			<g>
				<defs>
					<rect id="SVGID_7_" x="112.755" y="63.839" width="16.79" height="15.161"/>
				</defs>
				<clipPath id="SVGID_8_">
					<use xlink:href="#SVGID_7_"  overflow="visible"/>
				</clipPath>
				<polygon clip-path="url(#SVGID_8_)" fill="#28A64A" points="123.431,63.839 112.755,63.839 118.869,71.419 112.755,79 
					123.431,79 129.545,71.419 				"/>
			</g>
		</g>
		<g opacity="0.35" clip-path="url(#SVGID_4_)" enable-background="new    ">
			<g>
				<defs>
					<rect id="SVGID_9_" x="100.059" y="63.839" width="16.79" height="15.161"/>
				</defs>
				<clipPath id="SVGID_10_">
					<use xlink:href="#SVGID_9_"  overflow="visible"/>
				</clipPath>
				<polygon clip-path="url(#SVGID_10_)" fill="#28A64A" points="110.736,63.839 100.059,63.839 106.173,71.419 100.059,79 
					110.736,79 116.849,71.419 				"/>
			</g>
		</g>
		<g opacity="0.25" clip-path="url(#SVGID_4_)" enable-background="new    ">
			<g>
				<defs>
					<rect id="SVGID_11_" x="87.117" y="63.839" width="16.79" height="15.161"/>
				</defs>
				<clipPath id="SVGID_12_">
					<use xlink:href="#SVGID_11_"  overflow="visible"/>
				</clipPath>
				<polygon clip-path="url(#SVGID_12_)" fill="#28A64A" points="97.793,63.839 87.118,63.839 93.23,71.419 87.118,79 97.793,79 
					103.907,71.419 				"/>
			</g>
		</g>
		<g opacity="0.15" clip-path="url(#SVGID_4_)" enable-background="new    ">
			<g>
				<defs>
					<rect id="SVGID_13_" x="74.298" y="63.839" width="16.789" height="15.161"/>
				</defs>
				<clipPath id="SVGID_14_">
					<use xlink:href="#SVGID_13_"  overflow="visible"/>
				</clipPath>
				<polygon clip-path="url(#SVGID_14_)" fill="#28A64A" points="84.974,63.839 74.299,63.839 80.412,71.419 74.299,79 84.974,79 
					91.087,71.419 				"/>
			</g>
		</g>
		<path clip-path="url(#SVGID_4_)" fill="#FFFFFF" d="M167.875,71.524c0,1.098-0.277,1.96-0.833,2.589
			c-0.555,0.631-1.327,0.944-2.314,0.944c-1.012,0-1.791-0.309-2.341-0.928c-0.549-0.618-0.822-1.488-0.822-2.615
			c0-1.117,0.274-1.984,0.826-2.598c0.55-0.616,1.332-0.922,2.346-0.922c0.986,0,1.755,0.312,2.309,0.939
			C167.6,69.56,167.875,70.423,167.875,71.524 M162.408,71.524c0,0.929,0.198,1.634,0.594,2.113c0.396,0.479,0.972,0.72,1.726,0.72
			c0.76,0,1.334-0.239,1.722-0.718c0.388-0.478,0.582-1.184,0.582-2.115c0-0.924-0.193-1.623-0.58-2.101
			c-0.386-0.478-0.958-0.717-1.715-0.717c-0.76,0-1.338,0.242-1.734,0.721C162.606,69.908,162.408,70.606,162.408,71.524"/>
		<path clip-path="url(#SVGID_4_)" fill="#FFFFFF" d="M171.605,70.427h-1.309v4.536h-0.779v-4.536h-0.92v-0.353l0.92-0.282v-0.286
			c0-1.264,0.553-1.895,1.656-1.895c0.273,0,0.592,0.056,0.958,0.163l-0.202,0.624c-0.301-0.098-0.557-0.145-0.771-0.145
			c-0.293,0-0.511,0.098-0.651,0.293c-0.142,0.195-0.212,0.508-0.212,0.939v0.335h1.308v0.605H171.605z M174.835,70.427h-1.311
			v4.536h-0.778v-4.536h-0.92v-0.353l0.92-0.282v-0.286c0-1.264,0.552-1.895,1.657-1.895c0.271,0,0.591,0.056,0.957,0.163
			l-0.202,0.624c-0.301-0.098-0.558-0.145-0.771-0.145c-0.293,0-0.511,0.098-0.652,0.293s-0.211,0.508-0.211,0.939v0.335h1.309
			v0.605H174.835z M175.74,68.428c0-0.179,0.043-0.31,0.132-0.393c0.086-0.082,0.196-0.124,0.328-0.124
			c0.125,0,0.232,0.042,0.323,0.128c0.092,0.083,0.137,0.213,0.137,0.389c0,0.175-0.047,0.305-0.137,0.392
			c-0.091,0.086-0.198,0.128-0.323,0.128c-0.132,0-0.242-0.042-0.328-0.128C175.783,68.732,175.74,68.603,175.74,68.428
			 M176.584,74.963h-0.779v-5.142h0.779V74.963z"/>
		<path clip-path="url(#SVGID_4_)" fill="#FFFFFF" d="M180.301,75.059c-0.744,0-1.321-0.229-1.729-0.688
			c-0.408-0.457-0.612-1.107-0.612-1.945c0-0.86,0.207-1.523,0.621-1.994c0.415-0.47,1.006-0.703,1.772-0.703
			c0.247,0,0.494,0.025,0.741,0.079c0.247,0.053,0.441,0.115,0.582,0.188l-0.24,0.661c-0.172-0.068-0.358-0.124-0.563-0.169
			c-0.203-0.046-0.383-0.069-0.539-0.069c-1.045,0-1.569,0.667-1.569,2c0,0.632,0.128,1.116,0.385,1.455
			c0.254,0.337,0.632,0.507,1.133,0.507c0.43,0,0.868-0.093,1.318-0.278v0.691C181.257,74.97,180.823,75.059,180.301,75.059"/>
		<path clip-path="url(#SVGID_4_)" fill="#FFFFFF" d="M182.755,68.428c0-0.179,0.043-0.31,0.131-0.393
			c0.089-0.082,0.198-0.124,0.329-0.124c0.125,0,0.233,0.042,0.324,0.128c0.091,0.083,0.136,0.213,0.136,0.389
			c0,0.175-0.046,0.305-0.136,0.392c-0.091,0.086-0.199,0.128-0.324,0.128c-0.132,0-0.24-0.042-0.329-0.128
			C182.798,68.732,182.755,68.603,182.755,68.428 M183.6,74.963h-0.778v-5.142h0.778V74.963z"/>
		<path clip-path="url(#SVGID_4_)" fill="#FFFFFF" d="M188.414,74.963l-0.154-0.729h-0.038c-0.256,0.321-0.513,0.539-0.768,0.653
			c-0.255,0.115-0.572,0.172-0.955,0.172c-0.51,0-0.908-0.133-1.199-0.394c-0.289-0.264-0.433-0.638-0.433-1.123
			c0-1.039,0.83-1.583,2.491-1.634l0.872-0.026v-0.32c0-0.403-0.087-0.702-0.26-0.894s-0.452-0.289-0.833-0.289
			c-0.429,0-0.913,0.131-1.455,0.394l-0.24-0.596c0.255-0.139,0.532-0.246,0.834-0.324c0.302-0.077,0.604-0.116,0.907-0.116
			c0.614,0,1.067,0.136,1.363,0.408c0.295,0.271,0.443,0.708,0.443,1.31v3.509H188.414z M186.655,74.416
			c0.485,0,0.864-0.134,1.143-0.399c0.275-0.268,0.416-0.638,0.416-1.118v-0.465l-0.781,0.033c-0.619,0.022-1.063,0.12-1.339,0.289
			c-0.274,0.171-0.409,0.437-0.409,0.796c0,0.282,0.083,0.496,0.255,0.642C186.108,74.341,186.347,74.416,186.655,74.416"/>
		<rect x="190.596" y="67.664" clip-path="url(#SVGID_4_)" fill="#FFFFFF" width="0.779" height="7.299"/>
		<path clip-path="url(#SVGID_4_)" fill="#FFFFFF" d="M197.917,75.059c-0.335,0-0.641-0.063-0.917-0.187s-0.51-0.313-0.697-0.57
			h-0.057c0.039,0.301,0.057,0.585,0.057,0.854v2.116h-0.778v-7.451h0.634l0.106,0.704h0.038c0.2-0.282,0.434-0.487,0.698-0.61
			c0.268-0.126,0.571-0.188,0.916-0.188c0.683,0,1.208,0.233,1.579,0.697c0.37,0.468,0.556,1.121,0.556,1.962
			c0,0.846-0.188,1.501-0.565,1.97C199.109,74.823,198.586,75.059,197.917,75.059 M197.803,70.389c-0.523,0-0.905,0.146-1.14,0.436
			c-0.235,0.293-0.354,0.755-0.362,1.391v0.173c0,0.723,0.121,1.239,0.362,1.551c0.242,0.312,0.627,0.467,1.159,0.467
			c0.445,0,0.792-0.178,1.044-0.537c0.251-0.361,0.379-0.857,0.379-1.489c0-0.64-0.126-1.134-0.379-1.476
			C198.615,70.561,198.261,70.389,197.803,70.389"/>
		<path clip-path="url(#SVGID_4_)" fill="#FFFFFF" d="M204.574,74.963l-0.154-0.729h-0.037c-0.258,0.321-0.513,0.539-0.768,0.653
			c-0.255,0.115-0.573,0.172-0.954,0.172c-0.512,0-0.91-0.133-1.2-0.394c-0.289-0.264-0.434-0.638-0.434-1.123
			c0-1.039,0.831-1.583,2.491-1.634l0.875-0.026v-0.32c0-0.403-0.089-0.702-0.262-0.894c-0.174-0.191-0.451-0.289-0.834-0.289
			c-0.43,0-0.912,0.131-1.454,0.394l-0.24-0.596c0.254-0.139,0.532-0.246,0.834-0.324c0.302-0.077,0.604-0.116,0.908-0.116
			c0.612,0,1.065,0.136,1.362,0.408c0.295,0.271,0.443,0.708,0.443,1.31v3.509H204.574z M202.815,74.416
			c0.485,0,0.867-0.134,1.143-0.399c0.277-0.268,0.416-0.638,0.416-1.118v-0.465l-0.778,0.033c-0.619,0.022-1.066,0.12-1.342,0.289
			c-0.273,0.171-0.409,0.437-0.409,0.796c0,0.282,0.086,0.496,0.256,0.642C202.271,74.341,202.51,74.416,202.815,74.416"/>
		<path clip-path="url(#SVGID_4_)" fill="#FFFFFF" d="M209.104,69.728c0.228,0,0.433,0.019,0.615,0.057l-0.108,0.724
			c-0.213-0.049-0.399-0.073-0.563-0.073c-0.416,0-0.771,0.171-1.067,0.51c-0.295,0.337-0.443,0.757-0.443,1.262v2.757h-0.778
			v-5.142h0.643l0.089,0.951h0.038c0.191-0.333,0.42-0.592,0.691-0.774C208.486,69.818,208.781,69.728,209.104,69.728"/>
		<path clip-path="url(#SVGID_4_)" fill="#FFFFFF" d="M212.343,74.416c0.137,0,0.27-0.012,0.397-0.03
			c0.128-0.021,0.23-0.043,0.305-0.063v0.595c-0.084,0.04-0.208,0.075-0.373,0.102c-0.164,0.025-0.311,0.04-0.442,0.04
			c-0.995,0-1.492-0.524-1.492-1.571v-3.061H210v-0.376l0.737-0.323l0.328-1.099h0.451v1.192h1.491v0.605h-1.491v3.026
			c0,0.31,0.072,0.547,0.219,0.712C211.882,74.332,212.084,74.416,212.343,74.416"/>
		<path clip-path="url(#SVGID_4_)" fill="#FFFFFF" d="M217.593,74.963v-3.327c0-0.419-0.096-0.729-0.286-0.938
			c-0.19-0.205-0.489-0.309-0.897-0.309c-0.538,0-0.931,0.146-1.183,0.436c-0.25,0.292-0.375,0.772-0.375,1.441v2.697h-0.779v-5.142
			h0.633l0.127,0.705h0.037c0.161-0.256,0.383-0.45,0.672-0.592c0.287-0.14,0.609-0.208,0.963-0.208
			c0.619,0,1.084,0.149,1.397,0.447c0.313,0.3,0.468,0.777,0.468,1.436v3.352h-0.776V74.963z"/>
		<path clip-path="url(#SVGID_4_)" fill="#FFFFFF" d="M222.145,75.059c-0.76,0-1.359-0.232-1.8-0.694
			c-0.441-0.463-0.661-1.106-0.661-1.93c0-0.828,0.206-1.486,0.613-1.976c0.409-0.487,0.956-0.729,1.645-0.729
			c0.645,0,1.154,0.21,1.53,0.633c0.374,0.425,0.562,0.984,0.562,1.679v0.493h-3.543c0.017,0.604,0.169,1.063,0.457,1.375
			c0.291,0.313,0.698,0.47,1.225,0.47c0.553,0,1.101-0.116,1.642-0.35v0.695c-0.276,0.119-0.536,0.204-0.781,0.256
			C222.789,75.032,222.49,75.059,222.145,75.059 M221.934,70.38c-0.413,0-0.743,0.135-0.989,0.403
			c-0.245,0.269-0.389,0.642-0.434,1.116h2.689c0-0.49-0.109-0.867-0.33-1.128C222.652,70.51,222.34,70.38,221.934,70.38"/>
		<path clip-path="url(#SVGID_4_)" fill="#FFFFFF" d="M227.71,69.728c0.229,0,0.434,0.019,0.615,0.057l-0.108,0.724
			c-0.213-0.049-0.399-0.073-0.563-0.073c-0.416,0-0.771,0.171-1.067,0.51c-0.294,0.337-0.444,0.757-0.444,1.262v2.757h-0.777
			v-5.142h0.642l0.09,0.951h0.038c0.191-0.333,0.42-0.592,0.69-0.774C227.093,69.818,227.387,69.728,227.71,69.728"/>
		<path clip-path="url(#SVGID_4_)" fill="#FFFFFF" d="M236.223,72.388c0,0.838-0.213,1.492-0.634,1.963
			c-0.423,0.471-1.006,0.707-1.75,0.707c-0.461,0-0.869-0.109-1.225-0.324c-0.358-0.217-0.632-0.526-0.827-0.929
			c-0.195-0.403-0.291-0.878-0.291-1.419c0-0.838,0.21-1.49,0.629-1.958s1.002-0.701,1.745-0.701c0.72,0,1.291,0.239,1.716,0.718
			C236.01,70.924,236.223,71.57,236.223,72.388 M232.303,72.388c0,0.657,0.132,1.157,0.395,1.501
			c0.263,0.346,0.65,0.516,1.159,0.516s0.897-0.17,1.161-0.512c0.264-0.344,0.396-0.846,0.396-1.505
			c0-0.654-0.133-1.151-0.396-1.489c-0.264-0.341-0.654-0.51-1.17-0.51c-0.511,0-0.896,0.168-1.154,0.501
			C232.434,71.226,232.303,71.726,232.303,72.388"/>
		<path clip-path="url(#SVGID_4_)" fill="#FFFFFF" d="M239.905,70.427h-1.31v4.536h-0.778v-4.536h-0.921v-0.353l0.921-0.282v-0.286
			c0-1.264,0.552-1.895,1.656-1.895c0.272,0,0.591,0.056,0.958,0.163l-0.202,0.624c-0.301-0.098-0.559-0.145-0.771-0.145
			c-0.293,0-0.512,0.098-0.652,0.293s-0.211,0.508-0.211,0.939v0.336h1.309L239.905,70.427L239.905,70.427z"/>
		<polygon clip-path="url(#SVGID_4_)" fill="#333333" points="80.959,59.04 79.606,59.04 79.606,48.61 75.922,48.61 75.922,47.408 
			84.644,47.408 84.644,48.61 80.96,48.61 80.96,59.04 		"/>
		<path clip-path="url(#SVGID_4_)" fill="#333333" d="M92.162,59.04V53.4c0-0.71-0.162-1.242-0.486-1.592
			c-0.324-0.349-0.83-0.526-1.519-0.526c-0.919,0-1.588,0.25-2.01,0.749c-0.422,0.497-0.632,1.315-0.632,2.451v4.558h-1.321V46.66
			h1.321v3.748c0,0.449-0.021,0.824-0.064,1.121h0.08c0.259-0.419,0.63-0.748,1.109-0.99c0.48-0.241,1.028-0.361,1.644-0.361
			c1.066,0,1.866,0.253,2.399,0.759c0.533,0.508,0.799,1.311,0.799,2.416v5.688H92.162z"/>
		<path clip-path="url(#SVGID_4_)" fill="#333333" d="M96.085,47.957c0-0.302,0.074-0.523,0.222-0.663
			c0.149-0.142,0.335-0.212,0.557-0.212c0.213,0,0.396,0.073,0.549,0.216c0.154,0.143,0.231,0.362,0.231,0.659
			c0,0.298-0.077,0.52-0.231,0.665c-0.153,0.146-0.337,0.221-0.549,0.221c-0.222,0-0.408-0.075-0.557-0.221
			C96.159,48.477,96.085,48.255,96.085,47.957 M97.518,59.04h-1.321v-8.72h1.321V59.04z"/>
		<path clip-path="url(#SVGID_4_)" fill="#333333" d="M106.286,59.04V53.4c0-0.71-0.162-1.242-0.486-1.592
			c-0.324-0.349-0.83-0.526-1.519-0.526c-0.913,0-1.582,0.247-2.006,0.741c-0.423,0.492-0.635,1.308-0.635,2.443v4.575h-1.321V50.32
			h1.074l0.215,1.193h0.064c0.271-0.429,0.649-0.762,1.138-0.998c0.489-0.235,1.032-0.354,1.631-0.354
			c1.051,0,1.842,0.252,2.372,0.759c0.53,0.508,0.796,1.316,0.796,2.43v5.689H106.286z"/>
		<path clip-path="url(#SVGID_4_)" fill="#333333" d="M111.625,54.577c0.228-0.323,0.576-0.747,1.042-1.272l2.817-2.984h1.568
			l-3.532,3.716l3.778,5.004h-1.599l-3.079-4.121l-0.995,0.86v3.261h-1.306V46.66h1.306v6.565c0,0.292-0.022,0.742-0.064,1.352
			H111.625z"/>
		<path clip-path="url(#SVGID_4_)" fill="#333333" d="M123.17,47.409h3.621c1.649,0,2.848,0.233,3.592,0.703
			c0.745,0.469,1.118,1.218,1.118,2.24c0,0.695-0.163,1.266-0.489,1.709c-0.326,0.447-0.76,0.715-1.301,0.806v0.077
			c0.737,0.166,1.27,0.474,1.596,0.925c0.326,0.45,0.488,1.049,0.488,1.797c0,1.063-0.383,1.89-1.149,2.483
			c-0.767,0.595-1.808,0.891-3.123,0.891h-4.352V47.409z M125.637,52.015h1.432c0.669,0,1.151-0.104,1.452-0.311
			c0.299-0.206,0.448-0.549,0.448-1.026c0-0.445-0.162-0.764-0.488-0.958s-0.842-0.292-1.548-0.292h-1.296V52.015z M125.637,53.973
			v3.033h1.606c0.68,0,1.182-0.132,1.504-0.389c0.324-0.261,0.485-0.659,0.485-1.196c0-0.964-0.69-1.447-2.068-1.447L125.637,53.973
			L125.637,53.973z"/>
		<rect x="134.119" y="47.408" clip-path="url(#SVGID_4_)" fill="#333333" width="2.466" height="11.632"/>
		<path clip-path="url(#SVGID_4_)" fill="#333333" d="M143.931,52.509h4.614v6.031c-0.748,0.243-1.452,0.416-2.112,0.513
			c-0.66,0.098-1.335,0.146-2.024,0.146c-1.756,0-3.097-0.515-4.022-1.546c-0.926-1.033-1.389-2.514-1.389-4.445
			c0-1.877,0.538-3.342,1.612-4.394c1.075-1.047,2.563-1.572,4.468-1.572c1.194,0,2.345,0.237,3.453,0.714l-0.82,1.975
			c-0.848-0.425-1.731-0.637-2.649-0.637c-1.066,0-1.92,0.358-2.562,1.072c-0.642,0.719-0.963,1.681-0.963,2.89
			c0,1.263,0.258,2.228,0.776,2.892c0.517,0.667,1.269,1,2.255,1c0.515,0,1.037-0.053,1.568-0.159v-2.428h-2.204L143.931,52.509
			L143.931,52.509z"/>
		<polygon clip-path="url(#SVGID_4_)" fill="#28A64A" points="159.263,59.04 157.91,59.04 157.91,48.61 154.227,48.61 
			154.227,47.408 162.947,47.408 162.947,48.61 159.264,48.61 159.264,59.04 		"/>
		<path clip-path="url(#SVGID_4_)" fill="#28A64A" d="M168.477,50.162c0.387,0,0.734,0.032,1.042,0.095l-0.183,1.226
			c-0.361-0.078-0.679-0.118-0.955-0.118c-0.705,0-1.31,0.285-1.811,0.857c-0.502,0.573-0.752,1.287-0.752,2.143v4.678h-1.32V50.32
			h1.09l0.15,1.617h0.064c0.322-0.567,0.713-1.006,1.17-1.313S167.931,50.162,168.477,50.162"/>
		<path clip-path="url(#SVGID_4_)" fill="#28A64A" d="M176.514,59.04l-0.263-1.241h-0.063c-0.436,0.548-0.869,0.916-1.301,1.111
			c-0.433,0.193-0.973,0.289-1.619,0.289c-0.864,0-1.541-0.222-2.033-0.666c-0.491-0.445-0.736-1.081-0.736-1.902
			c0-1.762,1.408-2.684,4.227-2.768l1.479-0.048v-0.543c0-0.684-0.146-1.188-0.44-1.516c-0.296-0.325-0.767-0.491-1.413-0.491
			c-0.728,0-1.549,0.225-2.468,0.67l-0.405-1.01c0.43-0.232,0.9-0.416,1.413-0.55c0.512-0.132,1.024-0.198,1.54-0.198
			c1.04,0,1.81,0.23,2.311,0.692s0.752,1.201,0.752,2.22v5.952h-0.979V59.04z M173.529,58.111c0.822,0,1.468-0.226,1.937-0.677
			c0.471-0.45,0.704-1.083,0.704-1.893v-0.788l-1.319,0.055c-1.05,0.038-1.809,0.199-2.272,0.487
			c-0.464,0.292-0.696,0.74-0.696,1.35c0,0.479,0.145,0.841,0.434,1.092C172.605,57.987,173.01,58.111,173.529,58.111"/>
		<path clip-path="url(#SVGID_4_)" fill="#28A64A" d="M186.147,57.87h-0.072c-0.61,0.887-1.522,1.328-2.735,1.328
			c-1.142,0-2.027-0.386-2.662-1.166c-0.634-0.781-0.952-1.89-0.952-3.327c0-1.438,0.319-2.554,0.955-3.35
			c0.637-0.797,1.523-1.193,2.657-1.193c1.184,0,2.091,0.431,2.722,1.287h0.104l-0.056-0.628l-0.032-0.611v-3.55h1.322v12.38h-1.075
			L186.147,57.87z M183.507,58.095c0.901,0,1.557-0.246,1.962-0.736c0.406-0.49,0.608-1.281,0.608-2.375v-0.278
			c0-1.237-0.205-2.117-0.617-2.646s-1.067-0.794-1.969-0.794c-0.776,0-1.367,0.303-1.779,0.906
			c-0.411,0.601-0.615,1.451-0.615,2.55c0,1.113,0.204,1.954,0.612,2.521C182.115,57.81,182.715,58.095,183.507,58.095"/>
		<path clip-path="url(#SVGID_4_)" fill="#28A64A" d="M193.884,59.199c-1.29,0-2.308-0.392-3.054-1.176
			c-0.744-0.786-1.118-1.876-1.118-3.271c0-1.406,0.348-2.522,1.039-3.351c0.692-0.827,1.622-1.241,2.789-1.241
			c1.093,0,1.958,0.359,2.594,1.078c0.637,0.719,0.955,1.666,0.955,2.845v0.835h-6.008c0.026,1.025,0.284,1.802,0.775,2.332
			c0.491,0.531,1.182,0.795,2.073,0.795c0.939,0,1.867-0.197,2.786-0.588v1.177c-0.469,0.201-0.91,0.347-1.326,0.435
			C194.974,59.156,194.472,59.199,193.884,59.199 M193.524,51.266c-0.7,0-1.259,0.229-1.675,0.687s-0.662,1.089-0.735,1.896h4.559
			c0-0.834-0.186-1.472-0.557-1.915S194.216,51.266,193.524,51.266"/>
		<polygon clip-path="url(#SVGID_4_)" fill="#28A64A" points="205.127,59.04 203.773,59.04 203.773,47.408 210.259,47.408 
			210.259,48.61 205.127,48.61 205.127,52.867 209.948,52.867 209.948,54.067 205.127,54.067 		"/>
		<path clip-path="url(#SVGID_4_)" fill="#28A64A" d="M219.511,54.673c0,1.422-0.356,2.532-1.073,3.33s-1.706,1.196-2.969,1.196
			c-0.778,0-1.47-0.182-2.075-0.548s-1.071-0.892-1.401-1.576c-0.33-0.683-0.494-1.484-0.494-2.402c0-1.421,0.355-2.53,1.066-3.322
			c0.711-0.793,1.697-1.188,2.96-1.188c1.22,0,2.188,0.407,2.909,1.218C219.152,52.19,219.511,53.289,219.511,54.673
			 M212.867,54.673c0,1.113,0.223,1.963,0.669,2.548c0.447,0.582,1.101,0.874,1.965,0.874c0.865,0,1.522-0.29,1.97-0.87
			c0.448-0.583,0.673-1.434,0.673-2.552c0-1.107-0.225-1.949-0.673-2.527c-0.447-0.574-1.108-0.863-1.984-0.863
			c-0.865,0-1.517,0.286-1.957,0.853C213.087,52.703,212.867,53.549,212.867,54.673"/>
		<path clip-path="url(#SVGID_4_)" fill="#28A64A" d="M225.806,50.162c0.387,0,0.735,0.032,1.042,0.095l-0.183,1.226
			c-0.36-0.078-0.679-0.118-0.954-0.118c-0.705,0-1.31,0.285-1.811,0.857c-0.501,0.573-0.753,1.287-0.753,2.143v4.678h-1.319V50.32
			h1.089l0.151,1.617h0.063c0.322-0.567,0.713-1.006,1.171-1.313C224.759,50.316,225.261,50.162,225.806,50.162"/>
		<path clip-path="url(#SVGID_4_)" fill="#28A64A" d="M232.163,59.199c-1.288,0-2.307-0.392-3.051-1.176
			c-0.745-0.786-1.118-1.876-1.118-3.271c0-1.406,0.346-2.522,1.037-3.351c0.693-0.827,1.622-1.241,2.789-1.241
			c1.094,0,1.957,0.359,2.596,1.078c0.635,0.719,0.954,1.666,0.954,2.845v0.835h-6.008c0.026,1.025,0.284,1.802,0.775,2.332
			c0.492,0.531,1.182,0.795,2.073,0.795c0.938,0,1.866-0.197,2.784-0.588v1.177c-0.467,0.201-0.908,0.347-1.325,0.435
			C233.255,59.156,232.753,59.199,232.163,59.199 M231.805,51.266c-0.701,0-1.258,0.229-1.674,0.687
			c-0.417,0.457-0.662,1.089-0.737,1.896h4.561c0-0.834-0.187-1.472-0.558-1.915S232.493,51.266,231.805,51.266"/>
		<polygon clip-path="url(#SVGID_4_)" fill="#28A64A" points="239.722,54.577 236.69,50.32 238.193,50.32 240.493,53.662 
			242.785,50.32 244.274,50.32 241.241,54.577 244.433,59.04 242.938,59.04 240.495,55.508 238.027,59.04 236.531,59.04 		"/>
	</g>
	<g clip-path="url(#SVGID_2_)">
		<defs>
			<rect id="SVGID_15_" x="70.277" y="2.066" width="183.378" height="39.896"/>
		</defs>
		<clipPath id="SVGID_16_">
			<use xlink:href="#SVGID_15_"  overflow="visible"/>
		</clipPath>
		<polygon clip-path="url(#SVGID_16_)" fill="#2A88C9" points="81.602,40.365 76.497,40.365 76.497,15.896 90.521,15.896 
			90.521,20.148 81.602,20.148 81.602,26.456 89.901,26.456 89.901,30.691 81.602,30.691 		"/>
		<path clip-path="url(#SVGID_16_)" fill="#2A88C9" d="M111.909,30.973c0,3.048-0.804,5.43-2.41,7.149
			c-1.606,1.717-3.843,2.576-6.71,2.576c-1.797,0-3.381-0.394-4.754-1.181c-1.372-0.785-2.426-1.915-3.162-3.387
			c-0.736-1.473-1.105-3.191-1.105-5.157c0-3.055,0.798-5.433,2.394-7.127c1.595-1.696,3.838-2.544,6.727-2.544
			c1.797,0,3.381,0.39,4.754,1.17c1.371,0.782,2.426,1.903,3.162,3.365C111.54,27.302,111.909,29.014,111.909,30.973 M98.972,30.973
			c0,1.855,0.304,3.253,0.912,4.203c0.608,0.948,1.599,1.423,2.97,1.423c1.361,0,2.34-0.472,2.937-1.414
			c0.598-0.943,0.896-2.347,0.896-4.211c0-1.85-0.302-3.239-0.903-4.165c-0.603-0.926-1.591-1.39-2.963-1.39
			c-1.362,0-2.343,0.461-2.946,1.381C99.274,27.719,98.972,29.113,98.972,30.973"/>
		<path clip-path="url(#SVGID_16_)" fill="#2A88C9" d="M126.568,21.303c0.691,0,1.265,0.049,1.724,0.15l-0.386,4.787
			c-0.412-0.109-0.915-0.167-1.505-0.167c-1.63,0-2.898,0.417-3.807,1.253c-0.91,0.838-1.365,2.009-1.365,3.517v9.521h-5.104v-18.71
			h3.866l0.754,3.148h0.251c0.579-1.049,1.364-1.896,2.35-2.538C124.335,21.623,125.407,21.303,126.568,21.303"/>
		<path clip-path="url(#SVGID_16_)" fill="#2A88C9" d="M140.157,40.698c-3.013,0-5.366-0.83-7.063-2.491
			c-1.695-1.665-2.543-4.019-2.543-7.065c0-3.133,0.785-5.558,2.351-7.271c1.568-1.713,3.735-2.569,6.502-2.569
			c2.645,0,4.703,0.753,6.175,2.259c1.475,1.507,2.209,3.588,2.209,6.242v2.479h-12.064c0.056,1.448,0.486,2.581,1.288,3.396
			c0.803,0.815,1.93,1.222,3.381,1.222c1.127,0,2.193-0.119,3.196-0.353c1.006-0.233,2.052-0.607,3.146-1.122v3.952
			c-0.894,0.446-1.847,0.777-2.862,0.995C142.856,40.592,141.619,40.698,140.157,40.698 M139.438,24.934
			c-1.082,0-1.931,0.344-2.545,1.029c-0.614,0.688-0.964,1.661-1.054,2.92h7.162c-0.022-1.259-0.352-2.232-0.985-2.92
			C141.379,25.278,140.521,24.934,139.438,24.934"/>
		<polygon clip-path="url(#SVGID_16_)" fill="#2A88C9" points="155.771,30.81 149.746,21.654 155.536,21.654 159.166,27.613 
			162.835,21.654 168.623,21.654 162.53,30.81 168.906,40.365 163.1,40.365 159.166,33.956 155.22,40.365 149.428,40.365 		"/>
		<path clip-path="url(#SVGID_16_)" fill="#2A88C9" d="M212.797,40.374l-0.992-2.543h-0.128c-0.857,1.072-1.738,1.828-2.651,2.248
			c-0.917,0.415-2.098,0.623-3.557,0.623c-1.8,0-3.217-0.514-4.242-1.533c-1.031-1.033-1.55-2.496-1.55-4.384
			c0-1.989,0.696-3.455,2.086-4.4c1.396-0.94,3.482-1.462,6.285-1.561l3.239-0.102v-0.818c0-1.897-0.966-2.849-2.911-2.849
			c-1.489,0-3.247,0.459-5.27,1.359l-1.685-3.446c2.15-1.126,4.538-1.691,7.16-1.691c2.509,0,4.434,0.545,5.772,1.636
			c1.33,1.097,2.011,2.761,2.011,4.991v12.47H212.797z M211.286,31.698l-1.966,0.071c-1.488,0.046-2.587,0.312-3.314,0.805
			c-0.726,0.492-1.095,1.234-1.095,2.246c0,1.434,0.83,2.154,2.483,2.154c1.184,0,2.134-0.339,2.83-1.019
			c0.712-0.685,1.062-1.585,1.062-2.71V31.698z"/>
		<path clip-path="url(#SVGID_16_)" fill="#2A88C9" d="M232.063,21.311c0.687,0,1.263,0.048,1.718,0.147l-0.387,4.787
			c-0.409-0.11-0.909-0.168-1.497-0.168c-1.639,0-2.9,0.423-3.806,1.26c-0.917,0.833-1.373,2.006-1.373,3.514v9.522h-5.101V21.662
			h3.866l0.749,3.146h0.252c0.582-1.045,1.364-1.897,2.354-2.536C229.828,21.628,230.9,21.311,232.063,21.311"/>
		<path clip-path="url(#SVGID_16_)" fill="#2A88C9" d="M245.067,36.64c0.89,0,1.956-0.194,3.207-0.587v3.802
			c-1.269,0.564-2.833,0.847-4.683,0.847c-2.047,0-3.527-0.513-4.463-1.541c-0.933-1.039-1.4-2.585-1.4-4.648v-9.015h-2.438v-2.164
			l2.813-1.707l1.471-3.949h3.263v3.983h5.235v3.837h-5.235v9.015c0,0.725,0.201,1.264,0.613,1.61
			C243.859,36.467,244.395,36.64,245.067,36.64"/>
		<path clip-path="url(#SVGID_16_)" fill="#2A88C9" d="M188.099,15.903l-6.139,18.714h-0.105l-5.788-18.714h-2.633l-4.429,6.681
			v17.79h4.631V28.988c0-1.304-0.104-3.908-0.312-7.81h0.149l5.886,19.196h4.75l6.317-19.165h0.146
			c-0.133,3.081-0.208,4.973-0.227,5.691c-0.017,0.712-0.027,1.343-0.027,1.891v11.583h4.842V15.903H188.099z"/>
		<polygon clip-path="url(#SVGID_16_)" fill="#2A88C9" points="170.741,9.108 174.92,11.759 161.487,32.996 158.75,28.052 		"/>
		<polygon clip-path="url(#SVGID_16_)" fill="#2A88C9" points="166.839,9.093 176.857,3.329 176.84,14.888 		"/>
	</g>
	<g clip-path="url(#SVGID_2_)">
		<defs>
			<rect id="SVGID_17_" width="254.366" height="79"/>
		</defs>
		<clipPath id="SVGID_18_">
			<use xlink:href="#SVGID_17_"  overflow="visible"/>
		</clipPath>
		<path clip-path="url(#SVGID_18_)" fill="none" stroke="#2986C8" stroke-miterlimit="10" d="M68.074,35.416
			c0,18.65-15.133,33.785-33.782,33.785C15.629,69.2,0.5,54.065,0.5,35.416c0-18.661,15.128-33.79,33.79-33.79
			C52.939,1.625,68.074,16.754,68.074,35.416z"/>
		<path clip-path="url(#SVGID_18_)" fill="#2986C8" d="M57.356,12.557l-0.007,9.501l-2.045-1.182L41.788,41.212l6.172,9.25h-5.624
			l-3.802-6.193l-3.821,6.193h-5.606l6.137-9.25l-5.825-8.85h5.601l3.23,5.303l12.765-19.274l-1.926-1.117l8.251-4.746
			c-5.915-5.989-14.113-9.705-23.2-9.705c-17.999,0-32.587,14.591-32.587,32.592c0,10.295,4.781,19.462,12.236,25.438v-34.28h13.646
			v4.137h-8.681v6.139h8.078v4.124h-8.078v23.174C23.337,66.594,28.575,68,34.141,68c18.001,0,32.591-14.591,32.591-32.587
			C66.731,26.504,63.158,18.438,57.356,12.557"/>
	</g>
</g>
</svg>
