<?xml version="1.0" encoding="utf-8"?>
<!-- Generator: Adobe Illustrator 15.1.0, SVG Export Plug-In . SVG Version: 6.00 Build 0)  -->
<!DOCTYPE svg PUBLIC "-//W3C//DTD SVG 1.1//EN" "http://www.w3.org/Graphics/SVG/1.1/DTD/svg11.dtd">
<svg version="1.1" id="Capa_1" xmlns="http://www.w3.org/2000/svg" xmlns:xlink="http://www.w3.org/1999/xlink" x="0px" y="0px"
	 width="24px" height="24px" viewBox="243.817 243.817 24 24" enable-background="new 243.817 243.817 24 24" xml:space="preserve">
<g>
	<path fill="#FFFFFF" d="M264.922,248.914c-0.29-0.291-0.635-0.436-1.032-0.436h-1.468v-1.101c0-0.504-0.18-0.937-0.539-1.296
		s-0.791-0.539-1.296-0.539h-0.733c-0.505,0-0.937,0.18-1.296,0.539s-0.539,0.792-0.539,1.296v1.101h-4.404v-1.101
		c0-0.504-0.18-0.937-0.539-1.296s-0.791-0.539-1.296-0.539h-0.734c-0.504,0-0.937,0.18-1.296,0.539s-0.539,0.792-0.539,1.296v1.101
		h-1.468c-0.397,0-0.741,0.145-1.032,0.436c-0.29,0.291-0.436,0.635-0.436,1.032v14.678c0,0.397,0.146,0.742,0.436,1.032
		c0.291,0.291,0.635,0.436,1.032,0.436h16.146c0.397,0,0.742-0.145,1.032-0.436c0.29-0.29,0.436-0.635,0.436-1.032v-14.678
		C265.358,249.549,265.212,249.205,264.922,248.914z M251.046,264.625h-3.303v-3.303h3.303V264.625z M251.046,260.588h-3.303v-3.67
		h3.303V260.588z M251.046,256.185h-3.303v-3.303h3.303V256.185z M250.789,250.938c-0.073-0.073-0.109-0.158-0.109-0.258v-3.303
		c0-0.099,0.036-0.186,0.109-0.258c0.073-0.073,0.159-0.109,0.258-0.109h0.734c0.1,0,0.186,0.036,0.258,0.109
		c0.072,0.072,0.109,0.159,0.109,0.258v3.303c0,0.1-0.037,0.186-0.109,0.258c-0.073,0.073-0.159,0.109-0.258,0.109h-0.734
		C250.947,251.047,250.861,251.011,250.789,250.938z M255.45,264.625h-3.67v-3.303h3.67V264.625z M255.45,260.588h-3.67v-3.67h3.67
		V260.588z M255.45,256.185h-3.67v-3.303h3.67V256.185z M259.854,264.625h-3.67v-3.303h3.67V264.625z M259.854,260.588h-3.67v-3.67
		h3.67V260.588z M259.854,256.185h-3.67v-3.303h3.67V256.185z M259.595,250.938c-0.072-0.073-0.108-0.158-0.108-0.258v-3.303
		c0-0.099,0.036-0.186,0.108-0.258c0.073-0.073,0.159-0.109,0.259-0.109h0.733c0.1,0,0.186,0.036,0.258,0.109
		c0.073,0.072,0.109,0.159,0.109,0.258v3.303c0,0.1-0.036,0.186-0.109,0.258c-0.072,0.073-0.158,0.109-0.258,0.109h-0.733
		C259.754,251.047,259.668,251.011,259.595,250.938z M263.89,264.625h-3.303v-3.303h3.303V264.625z M263.89,260.588h-3.303v-3.67
		h3.303V260.588z M263.89,256.185h-3.303v-3.303h3.303V256.185z"/>
</g>
</svg>
