<?xml version="1.0" encoding="utf-8"?>
<!-- Generator: Adobe Illustrator 15.1.0, SVG Export Plug-In . SVG Version: 6.00 Build 0)  -->
<!DOCTYPE svg PUBLIC "-//W3C//DTD SVG 1.1//EN" "http://www.w3.org/Graphics/SVG/1.1/DTD/svg11.dtd">
<svg version="1.1" id="Layer_1" xmlns="http://www.w3.org/2000/svg" xmlns:xlink="http://www.w3.org/1999/xlink" x="0px" y="0px"
	 width="100px" height="100px" viewBox="0 0 100 100" enable-background="new 0 0 100 100" xml:space="preserve">
<path fill="#EDEDED" d="M80.435,50c0,16.809-13.626,30.435-30.435,30.435S19.565,66.809,19.565,50S33.191,19.565,50,19.565
	S80.435,33.191,80.435,50z"/>
<path fill="#F9DE58" d="M47.129,100L47.129,100c-0.927,0-1.797-0.447-2.336-1.202l-8.748-12.246
	c-0.822-1.15-1.264-2.529-1.264-3.942c0-1.414,0.442-2.793,1.264-3.943l8.748-12.246c0.539-0.754,1.409-1.202,2.336-1.202l0,0
	c1.585,0,2.871,1.285,2.871,2.87v3.368c11.85,0,21.455-9.606,21.455-21.456h22.023c0,24.013-19.466,43.479-43.479,43.479v3.651
	C50,98.715,48.715,100,47.129,100z"/>
<path fill="#FFBC00" d="M93.356,53.261c-0.4,5.401-1.79,10.527-3.984,15.2l-2.821,2.015c-1.15,0.821-2.528,1.264-3.942,1.264
	c-1.413,0-2.792-0.442-3.942-1.264L67.46,62.472c1.285-1.796,2.3-3.8,2.985-5.95c0,0,0.926-2.197,0.764-3.26
	c0.162-1.064,0.246-2.152,0.246-3.262h21.536C93.152,51.074,93.275,52.162,93.356,53.261z"/>
<path fill="#29ABE2" d="M100,52.871L100,52.871c0,0.927-0.447,1.797-1.202,2.336l-12.246,8.747c-1.15,0.821-2.529,1.264-3.942,1.264
	c-1.414,0-2.793-0.442-3.943-1.264L66.42,55.207c-0.754-0.539-1.202-1.409-1.202-2.336l0,0c0-1.586,1.285-2.871,2.87-2.871h3.368
	c0-11.85-9.606-21.456-21.456-21.456V6.521c24.013,0,43.479,19.466,43.479,43.479h3.651C98.715,50,100,51.285,100,52.871z"/>
<path fill="#56889B" d="M53.261,6.643c5.401,0.4,10.527,1.79,15.2,3.984l2.015,2.821c0.821,1.15,1.264,2.529,1.264,3.943
	c0,1.414-0.442,2.792-1.264,3.943L62.472,32.54c-1.796-1.286-3.8-2.3-5.95-2.985c0,0-2.197-0.926-3.261-0.764
	c-1.063-0.162-2.151-0.246-3.261-0.246V7.009C51.074,6.847,52.162,6.725,53.261,6.643z"/>
<path fill="#B6E152" d="M52.871,0L52.871,0c0.927,0,1.797,0.448,2.336,1.202l8.747,12.246c0.821,1.15,1.264,2.529,1.264,3.943
	c0,1.414-0.442,2.792-1.264,3.943L55.207,33.58c-0.539,0.754-1.409,1.202-2.336,1.202l0,0c-1.586,0-2.871-1.285-2.871-2.871v-3.368
	c-11.85,0-21.456,9.606-21.456,21.456H6.521C6.521,25.987,25.987,6.521,50,6.521V2.871C50,1.285,51.285,0,52.871,0z"/>
<path fill="#92B703" d="M7.009,50c-0.162-1.075-0.284-2.162-0.366-3.261c0.401-5.402,1.79-10.527,3.984-15.2l2.821-2.015
	c1.151-0.822,2.529-1.264,3.943-1.264c1.414,0,2.792,0.442,3.942,1.264l11.206,8.004c-1.285,1.796-2.3,3.8-2.985,5.95
	c0,0-1.011,5.413-1.011,6.521L7.009,50L7.009,50z"/>
<path fill="#FC7A51" d="M0,47.129L0,47.129c0-0.927,0.448-1.797,1.202-2.336l12.246-8.748c1.15-0.822,2.529-1.264,3.943-1.264
	c1.414,0,2.792,0.442,3.943,1.264l12.246,8.748c0.754,0.539,1.202,1.409,1.202,2.336l0,0c0,1.585-1.285,2.871-2.871,2.871h-3.368
	c0,11.85,9.606,21.455,21.456,21.455v22.023C25.987,93.479,6.521,74.013,6.521,50H2.871C1.285,50,0,48.715,0,47.129z"/>
<path fill="#B7441C" d="M50,71.455v21.533c-1.083,0.163-2.18,0.285-3.289,0.367c-5.392-0.404-10.507-1.792-15.172-3.982
	l-2.015-2.821c-0.822-1.15-1.264-2.529-1.264-3.942c0-1.414,0.442-2.793,1.264-3.943l8.004-11.206c1.796,1.286,3.8,2.3,5.95,2.985
	C43.479,70.445,48.888,71.455,50,71.455z"/>
<path fill="#FFDB57" d="M60.869,92.108c-3.474,0.894-7.115,1.37-10.869,1.37v3.65c0,1.586-1.285,2.871-2.871,2.871l0,0
	c-0.927,0-1.797-0.447-2.336-1.202l-8.748-12.246c-0.822-1.15-1.264-2.529-1.264-3.942c0-1.414,0.442-2.793,1.264-3.943
	l8.748-12.246c0.539-0.754,1.409-1.202,2.336-1.202l0,0c1.585,0,2.871,1.285,2.871,2.87v3.368c3.967,0,7.682-1.078,10.869-2.955
	V92.108L60.869,92.108L60.869,92.108z"/>
</svg>
