<?xml version="1.0" encoding="utf-8"?>
<!-- Generator: Adobe Illustrator 15.1.0, SVG Export Plug-In . SVG Version: 6.00 Build 0)  -->
<!DOCTYPE svg PUBLIC "-//W3C//DTD SVG 1.1//EN" "http://www.w3.org/Graphics/SVG/1.1/DTD/svg11.dtd">
<svg version="1.1" id="Layer_1" xmlns="http://www.w3.org/2000/svg" xmlns:xlink="http://www.w3.org/1999/xlink" x="0px" y="0px"
	 width="100px" height="100px" viewBox="0 0 100 100" enable-background="new 0 0 100 100" xml:space="preserve">
<g>
	<path fill="#E6E6E6" d="M100,21.897v53.761c0,2.378-1.615,4.38-3.813,4.963c-0.422,0.113-0.866,0.173-1.322,0.173H8.234
		c-2.836,0-5.135-2.299-5.135-5.136V21.897c0-2.836,2.299-5.135,5.135-5.135h86.631c0.456,0,0.9,0.06,1.322,0.173
		C98.385,17.518,100,19.52,100,21.897"/>
	<path fill="#B3B3B3" d="M100,21.897v5.109H3.099v-5.109c0-2.837,2.299-5.135,5.135-5.135h86.63
		C97.701,16.762,100,19.061,100,21.897"/>
	<rect x="8.985" y="30.095" fill="#999999" width="25.378" height="3.528"/>
	<polyline fill="#FFFFFF" points="94.422,47.546 54.779,47.546 54.779,75.663 94.422,75.663 94.422,47.546 	"/>
	<polyline fill="#29ABE2" points="92.75,70.377 56.679,70.377 56.679,73.906 92.75,73.906 92.75,70.377 	"/>
	<polyline fill="#FC7A51" points="61.161,63.55 56.679,63.55 56.679,67.078 61.161,67.078 61.161,63.55 	"/>
	<polyline fill="#F9DE58" points="74.821,56.723 56.679,56.723 56.679,60.25 74.821,60.25 74.821,56.723 	"/>
	<polyline fill="#999999" points="87.841,49.895 56.679,49.895 56.679,53.423 87.841,53.423 87.841,49.895 	"/>
	<circle fill="#FC7A51" cx="10.142" cy="21.884" r="3.202"/>
	<circle fill="#F9DE58" cx="18.68" cy="21.884" r="3.202"/>
	<path fill="#EEEEEE" d="M98.971,18.812c0.646,0.859,1.029,1.927,1.029,3.085v5.11h-4.979c0.01,7.662-4.145,15.065-11.406,18.856
		c-0.449,0.197-0.901,0.38-1.359,0.549l0.593,1.134h11.573v28.116H63.725l1.564,5.131h29.575c0.457,0,0.901-0.06,1.323-0.173
		c2.197-0.583,3.813-2.585,3.813-4.963V21.897C100,20.74,99.617,19.671,98.971,18.812 M98.962,18.801
		c0.003,0.003,0.005,0.007,0.008,0.01C98.967,18.808,98.965,18.805,98.962,18.801 M98.955,18.791
		c0.001,0.002,0.002,0.004,0.004,0.006C98.957,18.795,98.956,18.793,98.955,18.791 M98.947,18.782
		c0.001,0.001,0.002,0.002,0.002,0.003C98.949,18.784,98.948,18.783,98.947,18.782"/>
	<path fill="#CBCBCB" d="M94.865,16.762h-2.506c0.084,0.153,0.167,0.307,0.248,0.463c1.635,3.129,2.41,6.48,2.414,9.782H100v-5.11
		c0-1.158-0.384-2.226-1.029-3.085l0,0c-0.001,0-0.001,0-0.001,0l0,0c-0.003-0.003-0.005-0.006-0.008-0.01l0,0
		c-0.001-0.001-0.002-0.003-0.003-0.004l0,0c-0.002-0.002-0.004-0.004-0.005-0.006l0,0c-0.001-0.002-0.003-0.004-0.005-0.006l0,0
		c0-0.001-0.002-0.002-0.002-0.002l0,0c-0.68-0.891-1.645-1.552-2.76-1.847C95.766,16.822,95.321,16.762,94.865,16.762"/>
	<path fill="#FFFFFF" d="M94.422,47.546H82.848l1.138,2.178c-0.11,0.058-0.222,0.115-0.333,0.17h4.188v3.528H56.947l1.005,3.3
		h16.869v3.527H59.027l1.006,3.3h1.128v3.528h-0.053l1.006,3.299H92.75v3.529H63.189l0.535,1.757h30.697V47.546"/>
	<polyline fill="#6EC6EB" points="92.75,70.377 62.113,70.377 63.189,73.906 92.75,73.906 92.75,70.377 	"/>
	<polyline fill="#FDA589" points="61.161,63.55 60.033,63.55 61.108,67.078 61.161,67.078 61.161,63.55 	"/>
	<polyline fill="#FBE98E" points="74.821,56.723 57.952,56.723 59.027,60.25 74.821,60.25 74.821,56.723 	"/>
	<path fill="#EEEEEE" d="M52.563,27.006h-3.667l6.26,20.54h13.427c-0.313-0.06-0.625-0.126-0.937-0.198l-0.213-0.049
		c-5.184-1.627-9.744-5.231-12.457-10.428C53.329,33.715,52.553,30.335,52.563,27.006"/>
	<path fill="#CBCBCB" d="M55.223,16.762h-9.449l3.122,10.244h3.667c0.006-2.151,0.34-4.282,0.979-6.316
		C53.969,19.331,54.531,18.014,55.223,16.762"/>
	<path fill="#FFFFFF" d="M68.583,47.546H55.156l1.522,4.998v-2.649h11.522l0.717-2.286C68.807,47.589,68.695,47.568,68.583,47.546"
		/>
	<path fill="#BABABA" d="M87.841,49.895h-4.188c-3.042,1.521-6.279,2.244-9.474,2.244c-2.171,0-4.322-0.334-6.375-0.979l0.397-1.266
		H56.679v2.649l0.269,0.879h30.894V49.895"/>
	<path fill="#CECECE" d="M82.256,46.413c-1.322,0.491-2.679,0.87-4.054,1.134h4.646L82.256,46.413"/>
	<path fill="#DBDBDB" d="M82.848,47.546h-4.645c-1.586,0.305-3.196,0.458-4.811,0.458c-1.494,0-2.992-0.132-4.474-0.396
		l-0.718,2.286h15.451c0.111-0.056,0.223-0.113,0.333-0.17L82.848,47.546"/>
	<path fill="#A4A4A4" d="M83.652,49.895H68.201l-0.397,1.266c2.053,0.645,4.204,0.979,6.375,0.979
		C77.373,52.139,80.611,51.416,83.652,49.895"/>
	<path fill="#DBDBDB" d="M73.773,5.818c-3.311,0-6.668,0.776-9.805,2.414c-3.833,2-6.8,5.008-8.746,8.529h37.136
		c-2.737-4.948-7.181-8.386-12.208-9.964C78.097,6.153,75.945,5.818,73.773,5.818"/>
	<polyline fill="#9F9F9F" points="92.359,16.762 55.223,16.762 55.223,16.762 92.359,16.762 92.359,16.762 	"/>
	<path fill="#CECECE" d="M95.021,27.006H52.563c-0.01,3.329,0.767,6.708,2.414,9.865c2.713,5.196,7.273,8.8,12.457,10.428
		l0.213,0.049c0.312,0.072,0.623,0.138,0.937,0.198h9.619c1.375-0.264,2.731-0.643,4.054-1.134c0.457-0.17,0.91-0.353,1.359-0.549
		C90.877,42.072,95.03,34.669,95.021,27.006"/>
	<path fill="#B2B2B2" d="M92.359,16.762H55.223c-0.691,1.252-1.254,2.568-1.682,3.928c-0.639,2.035-0.973,4.166-0.979,6.316h42.459
		c-0.004-3.301-0.78-6.652-2.414-9.782C92.526,17.069,92.443,16.915,92.359,16.762"/>
	<path fill="#DBDBDB" d="M78.202,47.546h-9.619c0.112,0.021,0.224,0.042,0.336,0.063c1.481,0.264,2.979,0.396,4.474,0.396
		C75.006,48.005,76.617,47.852,78.202,47.546"/>
	<path fill="#F9DE58" d="M73.792,24.167l-1.118,3.563l-5.24,16.687c-5.182-1.626-9.743-5.231-12.456-10.427
		c-2.713-5.197-3.063-10.999-1.437-16.181L71.354,23.4L73.792,24.167z"/>
	<path fill="#29ABE2" d="M83.986,46.842c-1.598,0.833-3.252,1.443-4.927,1.842c-3.778,0.898-7.665,0.722-11.257-0.408l5.65-17.991
		l0.708-2.26L83.986,46.842z"/>
	<path fill="#FC7A51" d="M83.614,42.981l-9.822-18.814L71.354,23.4l-17.813-5.592c1.629-5.184,5.231-9.746,10.426-12.458
		c0.545-0.284,1.094-0.542,1.65-0.772c4.754-1.991,9.893-2.12,14.533-0.662c5.184,1.626,9.746,5.229,12.458,10.426
		C98.032,24.734,94.007,37.556,83.614,42.981z"/>
	<polyline fill="#FFFFFF" points="48.319,36.021 8.677,36.021 8.677,75.663 48.319,75.663 48.319,36.021 	"/>
	<polyline fill="#2BE0C6" points="19.978,54.213 12.294,54.213 12.294,73.422 19.978,73.422 19.978,54.213 	"/>
	<polyline fill="#F9DE58" points="32.339,47.811 24.656,47.811 24.656,73.422 32.339,73.422 32.339,47.811 	"/>
	<polyline fill="#FC7A51" points="44.701,40.768 37.018,40.768 37.018,73.422 44.701,73.422 44.701,40.768 	"/>
	<polyline fill="#29ABE2" points="51.829,69.531 51.829,97.064 0,97.064 0,69.531 51.829,69.531 	"/>
	<polyline fill="#F2F2F2" points="3.202,93.863 3.202,72.732 48.627,72.732 48.627,93.863 3.202,93.863 	"/>
	<polyline fill="#FC7A51" points="23.065,91.987 18.656,87.211 16.79,89.744 15.346,88.68 18.501,84.398 22.699,88.947 
		29.292,77.043 34.318,85.119 40.21,74.607 41.774,75.484 34.398,88.643 29.382,80.581 23.065,91.987 	"/>
	<rect x="5.549" y="76.361" fill="#999999" width="5.763" height="2.348"/>
	<rect x="5.549" y="82.123" fill="#999999" width="5.763" height="2.348"/>
	<rect x="5.549" y="87.887" fill="#999999" width="5.763" height="2.348"/>
	<polyline fill="#6EC6EB" points="51.829,69.531 44.701,69.531 37.018,69.531 32.339,69.531 24.656,69.531 19.978,69.531 
		19.824,69.531 20.8,72.732 48.627,72.732 48.627,93.863 27.239,93.863 28.214,97.064 51.829,97.064 51.829,69.531 	"/>
	<polyline fill="#F6F6F6" points="48.627,72.732 20.8,72.732 24.661,85.404 29.292,77.043 34.318,85.119 40.21,74.607 
		41.774,75.484 34.398,88.643 29.382,80.581 25.389,87.791 27.239,93.863 48.627,93.863 48.627,72.732 	"/>
	<polyline fill="#FDA589" points="40.21,74.607 34.318,85.119 29.292,77.043 24.661,85.404 25.389,87.791 29.382,80.581 
		34.398,88.643 41.774,75.484 40.21,74.607 	"/>
	<path fill="#CCCCCC" d="M84.029,89.197l1.811-4.41l5.391,5.391c0.313,0.313,0.723,0.469,1.131,0.467
		c0.411,0,0.82-0.154,1.133-0.467c0.626-0.627,0.625-1.64,0-2.265l-5.39-5.39l4.411-1.813l-16.768-8.279L84.029,89.197z"/>
	<path fill="#808080" d="M84.029,89.197l1.811-4.41l5.391,5.391c0.313,0.313,0.723,0.469,1.131,0.467
		c0.411,0,0.82-0.154,1.133-0.467L75.748,72.432L84.029,89.197z"/>
</g>
</svg>
