<?xml version="1.0" encoding="utf-8"?>
<!-- Generator: Adobe Illustrator 15.1.0, SVG Export Plug-In . SVG Version: 6.00 Build 0)  -->
<!DOCTYPE svg PUBLIC "-//W3C//DTD SVG 1.1//EN" "http://www.w3.org/Graphics/SVG/1.1/DTD/svg11.dtd">
<svg version="1.1" id="Layer_1" xmlns="http://www.w3.org/2000/svg" xmlns:xlink="http://www.w3.org/1999/xlink" x="0px" y="0px"
	 width="342.799px" height="92.371px" viewBox="9 12.846 342.799 92.371" enable-background="new 9 12.846 342.799 92.371"
	 xml:space="preserve">
<g id="Layer_2">
</g>
<g>
	<path fill="#28A64A" d="M212.719,97.466"/>
	<polyline fill="#28A64A" points="342.594,97.479 342.594,97.466 342.577,97.466 342.094,97.466 	"/>
	<path opacity="0.61" fill="#28A64A" enable-background="new    " d="M181.265,97.466"/>
	<path opacity="0.61" fill="#28A64A" enable-background="new    " d="M210.219,97.466"/>
	<path opacity="0.35" fill="#28A64A" enable-background="new    " d="M164.284,97.466"/>
	<path opacity="0.35" fill="#28A64A" enable-background="new    " d="M178.719,97.466"/>
	<path opacity="0.35" fill="#28A64A" enable-background="new    " d="M147.117,97.466"/>
	<path opacity="0.35" fill="#28A64A" enable-background="new    " d="M161.553,97.466"/>
	<path opacity="0.25" fill="#28A64A" enable-background="new    " d="M129.617,97.466"/>
	<path opacity="0.25" fill="#28A64A" enable-background="new    " d="M144.053,97.466"/>
	<path opacity="0.15" fill="#28A64A" enable-background="new    " d="M112.284,97.466"/>
	<path opacity="0.15" fill="#28A64A" enable-background="new    " d="M126.719,97.466"/>
	<g>
		<path fill="#FFFFFF" d="M121.291,90.979h-1.829V76.875h-4.981V75.25h11.792v1.625h-4.981L121.291,90.979L121.291,90.979z"/>
		<path fill="#FFFFFF" d="M136.439,90.979v-7.627c0-0.961-0.219-1.68-0.657-2.151c-0.438-0.474-1.123-0.711-2.055-0.711
			c-1.241,0-2.146,0.338-2.717,1.012c-0.57,0.674-0.855,1.778-0.855,3.313v6.164h-1.786V74.239h1.786v5.067
			c0,0.608-0.029,1.114-0.086,1.517h0.108c0.351-0.566,0.852-1.013,1.5-1.341c0.649-0.325,1.39-0.488,2.222-0.488
			c1.442,0,2.523,0.343,3.244,1.027c0.721,0.686,1.081,1.772,1.081,3.266v7.691H136.439z"/>
		<path fill="#FFFFFF" d="M141.743,75.992c0-0.408,0.1-0.708,0.301-0.898c0.201-0.189,0.452-0.285,0.753-0.285
			c0.287,0,0.534,0.099,0.742,0.291c0.208,0.193,0.312,0.491,0.312,0.894c0,0.401-0.104,0.7-0.312,0.897s-0.456,0.297-0.742,0.297
			c-0.301,0-0.552-0.1-0.753-0.297S141.743,76.395,141.743,75.992z M143.68,90.979h-1.786V79.188h1.786V90.979z"/>
		<path fill="#FFFFFF" d="M155.536,90.979v-7.627c0-0.961-0.219-1.68-0.657-2.151c-0.438-0.474-1.123-0.711-2.055-0.711
			c-1.234,0-2.138,0.334-2.711,1.001c-0.573,0.667-0.86,1.769-0.86,3.303v6.188h-1.786V79.188h1.453l0.291,1.614h0.086
			c0.366-0.581,0.878-1.03,1.539-1.351c0.66-0.318,1.395-0.479,2.206-0.479c1.42,0,2.489,0.342,3.206,1.026
			c0.717,0.687,1.076,1.78,1.076,3.287v7.692H155.536L155.536,90.979z"/>
		<path fill="#FFFFFF" d="M162.755,84.943c0.308-0.438,0.778-1.012,1.409-1.721l3.809-4.035h2.12l-4.777,5.023l5.11,6.768h-2.163
			l-4.164-5.572l-1.345,1.162v4.41h-1.765V74.239h1.765v8.876c0,0.395-0.029,1.004-0.086,1.828H162.755z"/>
		<path fill="#FFFFFF" d="M178.366,75.25h4.896c2.23,0,3.85,0.316,4.857,0.952c1.007,0.635,1.512,1.646,1.512,3.028
			c0,0.939-0.221,1.711-0.662,2.313c-0.441,0.604-1.027,0.965-1.759,1.087v0.106c0.997,0.224,1.716,0.64,2.157,1.248
			c0.441,0.609,0.662,1.42,0.662,2.433c0,1.435-0.518,2.554-1.555,3.356c-1.037,0.804-2.444,1.205-4.223,1.205h-5.885V75.25
			L178.366,75.25z M181.701,81.479h1.937c0.904,0,1.558-0.14,1.963-0.42c0.405-0.279,0.608-0.742,0.608-1.388
			c0-0.603-0.221-1.034-0.662-1.296s-1.139-0.395-2.093-0.395h-1.753V81.479L181.701,81.479z M181.701,84.126v4.101h2.173
			c0.918,0,1.596-0.177,2.033-0.527c0.437-0.352,0.656-0.891,0.656-1.614c0-1.306-0.933-1.958-2.797-1.958L181.701,84.126
			L181.701,84.126z"/>
		<path fill="#FFFFFF" d="M193.17,90.979V75.25h3.335v15.729H193.17z"/>
		<path fill="#FFFFFF" d="M206.436,82.146h6.24v8.154c-1.011,0.33-1.963,0.563-2.856,0.694s-1.806,0.198-2.738,0.198
			c-2.374,0-4.187-0.697-5.438-2.092c-1.252-1.396-1.877-3.398-1.877-6.01c0-2.539,0.726-4.52,2.179-5.939
			c1.453-1.418,3.466-2.129,6.041-2.129c1.614,0,3.17,0.322,4.669,0.968l-1.108,2.669c-1.147-0.574-2.342-0.861-3.583-0.861
			c-1.442,0-2.597,0.484-3.464,1.452c-0.868,0.97-1.302,2.271-1.302,3.906c0,1.707,0.35,3.011,1.049,3.909
			c0.699,0.9,1.716,1.352,3.05,1.352c0.696,0,1.402-0.07,2.12-0.215v-3.282h-2.98v-2.774H206.436z"/>
		<path fill="#28A64A" d="M227.168,90.979h-1.829V76.875h-4.981V75.25h11.792v1.625h-4.981L227.168,90.979L227.168,90.979z"/>
		<path fill="#28A64A" d="M239.626,78.973c0.523,0,0.993,0.043,1.409,0.129l-0.247,1.657c-0.488-0.106-0.918-0.161-1.291-0.161
			c-0.954,0-1.77,0.387-2.448,1.161c-0.678,0.775-1.017,1.74-1.017,2.896v6.326h-1.786V79.188h1.474l0.204,2.186h0.086
			c0.437-0.768,0.964-1.359,1.582-1.775C238.21,79.182,238.888,78.973,239.626,78.973z"/>
		<path fill="#28A64A" d="M250.493,90.979l-0.355-1.679h-0.086c-0.588,0.739-1.175,1.239-1.759,1.501s-1.314,0.393-2.189,0.393
			c-1.169,0-2.085-0.301-2.749-0.902s-0.995-1.46-0.995-2.57c0-2.383,1.904-3.631,5.713-3.744l2.001-0.064V83.18
			c0-0.926-0.199-1.607-0.597-2.05c-0.398-0.44-1.035-0.662-1.91-0.662c-0.983,0-2.095,0.302-3.335,0.904l-0.549-1.366
			c0.581-0.314,1.218-0.563,1.91-0.742c0.692-0.18,1.386-0.27,2.082-0.27c1.406,0,2.448,0.313,3.125,0.938
			c0.677,0.623,1.017,1.623,1.017,3v8.049h-1.324V90.979z M246.458,89.721c1.112,0,1.985-0.305,2.62-0.914
			c0.635-0.609,0.952-1.464,0.952-2.561v-1.064l-1.786,0.074c-1.42,0.051-2.444,0.271-3.072,0.661
			c-0.627,0.392-0.941,0.999-0.941,1.824c0,0.646,0.195,1.137,0.586,1.474C245.208,89.553,245.755,89.721,246.458,89.721z"/>
		<path fill="#28A64A" d="M263.521,89.396h-0.097c-0.825,1.199-2.059,1.797-3.701,1.797c-1.542,0-2.742-0.525-3.599-1.58
			s-1.286-2.555-1.286-4.497c0-1.944,0.43-3.454,1.291-4.529c0.861-1.076,2.059-1.614,3.593-1.614c1.6,0,2.826,0.582,3.68,1.743
			h0.14l-0.075-0.851l-0.043-0.828v-4.798h1.786v16.739h-1.453L263.521,89.396z M259.95,89.699c1.219,0,2.104-0.332,2.652-0.995
			c0.549-0.663,0.823-1.733,0.823-3.212v-0.376c0-1.673-0.278-2.864-0.834-3.577c-0.556-0.714-1.443-1.071-2.663-1.071
			c-1.047,0-1.849,0.407-2.405,1.222c-0.556,0.813-0.833,1.963-0.833,3.449c0,1.506,0.276,2.643,0.828,3.409
			C258.07,89.314,258.881,89.699,259.95,89.699z"/>
		<path fill="#28A64A" d="M273.979,91.193c-1.743,0-3.119-0.529-4.126-1.592c-1.008-1.062-1.512-2.535-1.512-4.422
			c0-1.9,0.468-3.41,1.404-4.529c0.936-1.118,2.193-1.678,3.771-1.678c1.478,0,2.647,0.485,3.507,1.457
			c0.861,0.973,1.291,2.254,1.291,3.846v1.131h-8.123c0.036,1.385,0.385,2.436,1.049,3.152c0.664,0.717,1.598,1.075,2.803,1.075
			c1.27,0,2.524-0.266,3.766-0.796v1.592c-0.631,0.272-1.229,0.469-1.792,0.588C275.455,91.136,274.775,91.193,273.979,91.193z
			 M273.495,80.468c-0.947,0-1.702,0.31-2.265,0.927s-0.895,1.471-0.995,2.561h6.165c0-1.126-0.251-1.988-0.753-2.588
			S274.428,80.468,273.495,80.468z"/>
		<path fill="#28A64A" d="M289.182,90.979h-1.829V75.25h8.769v1.625h-6.939v5.756h6.52v1.624h-6.52L289.182,90.979L289.182,90.979z"
			/>
		<path fill="#28A64A" d="M308.633,85.073c0,1.922-0.484,3.423-1.452,4.502c-0.968,1.079-2.306,1.618-4.013,1.618
			c-1.054,0-1.99-0.246-2.808-0.741c-0.818-0.495-1.449-1.205-1.894-2.13c-0.445-0.926-0.667-2.01-0.667-3.249
			c0-1.923,0.48-3.421,1.441-4.492c0.961-1.072,2.295-1.608,4.002-1.608c1.65,0,2.96,0.549,3.933,1.646
			C308.147,81.716,308.633,83.201,308.633,85.073z M299.65,85.073c0,1.506,0.301,2.653,0.904,3.442s1.488,1.184,2.657,1.184
			s2.057-0.393,2.663-1.178c0.606-0.787,0.909-1.937,0.909-3.448c0-1.499-0.303-2.638-0.909-3.416s-1.5-1.168-2.684-1.168
			c-1.169,0-2.051,0.384-2.646,1.151C299.947,82.408,299.65,83.553,299.65,85.073z"/>
		<path fill="#28A64A" d="M317.144,78.973c0.523,0,0.993,0.043,1.409,0.129l-0.247,1.657c-0.488-0.106-0.918-0.161-1.291-0.161
			c-0.954,0-1.77,0.387-2.448,1.161c-0.678,0.775-1.017,1.74-1.017,2.896v6.326h-1.786V79.188h1.474l0.204,2.186h0.086
			c0.437-0.768,0.964-1.359,1.582-1.775C315.727,79.182,316.405,78.973,317.144,78.973z"/>
		<path fill="#28A64A" d="M325.74,91.193c-1.743,0-3.119-0.529-4.126-1.592c-1.008-1.062-1.513-2.535-1.513-4.422
			c0-1.9,0.469-3.41,1.404-4.529c0.937-1.118,2.193-1.678,3.771-1.678c1.478,0,2.646,0.485,3.507,1.457
			c0.86,0.973,1.291,2.254,1.291,3.846v1.131h-8.123c0.036,1.385,0.385,2.436,1.049,3.152s1.598,1.075,2.803,1.075
			c1.271,0,2.524-0.266,3.767-0.796v1.592c-0.631,0.272-1.229,0.469-1.792,0.588C327.216,91.136,326.536,91.193,325.74,91.193z
			 M325.256,80.468c-0.947,0-1.702,0.31-2.265,0.927c-0.563,0.617-0.896,1.471-0.995,2.561h6.165c0-1.126-0.251-1.988-0.753-2.588
			S326.188,80.468,325.256,80.468z"/>
		<path fill="#28A64A" d="M335.961,84.943l-4.099-5.756h2.032l3.109,4.519l3.099-4.519h2.013l-4.1,5.756l4.314,6.035h-2.022
			l-3.303-4.776l-3.335,4.776h-2.023L335.961,84.943z"/>
	</g>
	<g>
		<g id="Layer_1_1_">
			<g>
				<defs>
					<rect id="SVGID_25_" x="106.846" y="13.942" width="247.953" height="53.943"/>
				</defs>
				<clipPath id="SVGID_1_">
					<use xlink:href="#SVGID_25_"  overflow="visible"/>
				</clipPath>
				<polygon clip-path="url(#SVGID_1_)" fill="#2A88C9" points="122.159,65.727 115.257,65.727 115.257,32.642 134.22,32.642 
					134.22,38.391 122.159,38.391 122.159,46.921 133.382,46.921 133.382,52.646 122.159,52.646 				"/>
			</g>
			<g>
				<defs>
					<rect id="SVGID_27_" x="106.846" y="13.942" width="247.953" height="53.943"/>
				</defs>
				<clipPath id="SVGID_2_">
					<use xlink:href="#SVGID_27_"  overflow="visible"/>
				</clipPath>
				<g clip-path="url(#SVGID_2_)">
					<g>
						<defs>
							<rect id="SVGID_29_" x="106.846" y="13.942" width="247.953" height="53.943"/>
						</defs>
						<defs>
							<rect id="SVGID_30_" x="106.846" y="13.942" width="247.953" height="53.943"/>
						</defs>
						<defs>
							<rect id="SVGID_31_" x="106.846" y="13.942" width="247.953" height="53.943"/>
						</defs>
						<defs>
							<rect id="SVGID_32_" x="106.846" y="13.942" width="247.953" height="53.943"/>
						</defs>
						<defs>
							<rect id="SVGID_33_" x="106.846" y="13.942" width="247.953" height="53.943"/>
						</defs>
						<defs>
							<rect id="SVGID_34_" x="106.846" y="13.942" width="247.953" height="53.943"/>
						</defs>
						<defs>
							<rect id="SVGID_35_" x="106.846" y="13.942" width="247.953" height="53.943"/>
						</defs>
						<defs>
							<rect id="SVGID_36_" x="106.846" y="13.942" width="247.953" height="53.943"/>
						</defs>
						<defs>
							<rect id="SVGID_37_" x="106.846" y="13.942" width="247.953" height="53.943"/>
						</defs>
						<defs>
							<rect id="SVGID_38_" x="106.846" y="13.942" width="247.953" height="53.943"/>
						</defs>
						<clipPath id="SVGID_3_">
							<use xlink:href="#SVGID_29_"  overflow="visible"/>
						</clipPath>
						<clipPath id="SVGID_4_" clip-path="url(#SVGID_3_)">
							<use xlink:href="#SVGID_30_"  overflow="visible"/>
						</clipPath>
						<clipPath id="SVGID_5_" clip-path="url(#SVGID_4_)">
							<use xlink:href="#SVGID_31_"  overflow="visible"/>
						</clipPath>
						<clipPath id="SVGID_6_" clip-path="url(#SVGID_5_)">
							<use xlink:href="#SVGID_32_"  overflow="visible"/>
						</clipPath>
						<clipPath id="SVGID_7_" clip-path="url(#SVGID_6_)">
							<use xlink:href="#SVGID_33_"  overflow="visible"/>
						</clipPath>
						<clipPath id="SVGID_8_" clip-path="url(#SVGID_7_)">
							<use xlink:href="#SVGID_34_"  overflow="visible"/>
						</clipPath>
						<clipPath id="SVGID_9_" clip-path="url(#SVGID_8_)">
							<use xlink:href="#SVGID_35_"  overflow="visible"/>
						</clipPath>
						<clipPath id="SVGID_10_" clip-path="url(#SVGID_9_)">
							<use xlink:href="#SVGID_36_"  overflow="visible"/>
						</clipPath>
						<clipPath id="SVGID_11_" clip-path="url(#SVGID_10_)">
							<use xlink:href="#SVGID_37_"  overflow="visible"/>
						</clipPath>
						<clipPath id="SVGID_12_" clip-path="url(#SVGID_11_)">
							<use xlink:href="#SVGID_38_"  overflow="visible"/>
						</clipPath>
						<path clip-path="url(#SVGID_12_)" fill="#2A88C9" d="M163.138,53.028c0,4.121-1.086,7.342-3.258,9.666
							c-2.171,2.322-5.196,3.483-9.073,3.483c-2.43,0-4.571-0.532-6.427-1.596c-1.855-1.063-3.281-2.591-4.276-4.581
							c-0.996-1.992-1.494-4.314-1.494-6.973c0-4.13,1.079-7.345,3.236-9.636c2.157-2.294,5.19-3.44,9.097-3.44
							c2.429,0,4.571,0.527,6.427,1.583c1.855,1.057,3.281,2.572,4.277,4.548C162.64,48.062,163.138,50.377,163.138,53.028
							 M145.646,53.028c0,2.507,0.411,4.399,1.233,5.683c0.822,1.282,2.162,1.924,4.016,1.924c1.84,0,3.164-0.639,3.971-1.912
							c0.809-1.276,1.212-3.173,1.212-5.694c0-2.501-0.408-4.381-1.222-5.632c-0.814-1.253-2.15-1.879-4.006-1.879
							c-1.84,0-3.167,0.623-3.982,1.867C146.054,48.628,145.646,50.512,145.646,53.028"/>
						<path clip-path="url(#SVGID_12_)" fill="#2A88C9" d="M182.96,39.952c0.935,0,1.711,0.067,2.331,0.203l-0.521,6.472
							c-0.558-0.149-1.237-0.227-2.036-0.227c-2.204,0-3.918,0.565-5.148,1.696c-1.23,1.132-1.845,2.717-1.845,4.753v12.875h-6.901
							V40.427h5.228l1.018,4.254h0.34c0.783-1.417,1.844-2.561,3.178-3.428C179.94,40.385,181.39,39.952,182.96,39.952"/>
						<path clip-path="url(#SVGID_12_)" fill="#2A88C9" d="M201.335,66.177c-4.074,0-7.256-1.122-9.55-3.368
							c-2.292-2.25-3.438-5.434-3.438-9.552c0-4.238,1.06-7.515,3.179-9.831c2.119-2.316,5.05-3.474,8.792-3.474
							c3.574,0,6.358,1.018,8.348,3.054c1.993,2.037,2.987,4.851,2.987,8.44v3.351h-16.314c0.076,1.959,0.658,3.491,1.742,4.592
							c1.085,1.103,2.61,1.652,4.571,1.652c1.524,0,2.966-0.16,4.323-0.477c1.359-0.314,2.774-0.819,4.254-1.517v5.343
							c-1.208,0.604-2.498,1.051-3.869,1.346C204.985,66.031,203.311,66.177,201.335,66.177 M200.363,44.862
							c-1.463,0-2.61,0.464-3.441,1.391c-0.83,0.929-1.304,2.246-1.425,3.949h9.684c-0.03-1.703-0.475-3.021-1.333-3.949
							C202.986,45.326,201.825,44.862,200.363,44.862"/>
						<polygon clip-path="url(#SVGID_12_)" fill="#2A88C9" points="222.446,52.806 214.3,40.427 222.13,40.427 227.039,48.482 
							231.997,40.427 239.824,40.427 231.587,52.806 240.208,65.727 232.356,65.727 227.039,57.058 221.7,65.727 213.87,65.727 
													"/>
						<path clip-path="url(#SVGID_12_)" fill="#2A88C9" d="M299.553,65.738l-1.34-3.438h-0.173c-1.159,1.45-2.352,2.472-3.585,3.038
							c-1.241,0.563-2.837,0.844-4.81,0.844c-2.432,0-4.349-0.695-5.735-2.072c-1.396-1.396-2.097-3.375-2.097-5.928
							c0-2.688,0.942-4.67,2.821-5.949c1.887-1.27,4.709-1.976,8.499-2.11l4.379-0.137v-1.108c0-2.564-1.305-3.851-3.936-3.851
							c-2.012,0-4.389,0.621-7.125,1.838l-2.277-4.661c2.908-1.521,6.135-2.285,9.681-2.285c3.392,0,5.996,0.737,7.804,2.212
							c1.8,1.481,2.719,3.731,2.719,6.747v16.861H299.553L299.553,65.738z M297.511,54.009l-2.659,0.094
							c-2.011,0.064-3.498,0.422-4.48,1.089c-0.982,0.665-1.48,1.67-1.48,3.036c0,1.94,1.121,2.915,3.358,2.915
							c1.599,0,2.885-0.459,3.828-1.379c0.96-0.926,1.434-2.143,1.434-3.665L297.511,54.009L297.511,54.009z"/>
						<path clip-path="url(#SVGID_12_)" fill="#2A88C9" d="M325.605,39.963c0.927,0,1.708,0.065,2.321,0.199l-0.521,6.471
							c-0.555-0.148-1.231-0.226-2.026-0.226c-2.215,0-3.922,0.571-5.145,1.702c-1.239,1.127-1.856,2.713-1.856,4.753v12.876h-6.898
							V40.437h5.228l1.013,4.252h0.339c0.788-1.412,1.846-2.563,3.186-3.427C322.581,40.393,324.032,39.963,325.605,39.963"/>
						<path clip-path="url(#SVGID_12_)" fill="#2A88C9" d="M343.189,60.689c1.201,0,2.644-0.263,4.336-0.795v5.141
							c-1.716,0.765-3.829,1.146-6.332,1.146c-2.768,0-4.771-0.695-6.034-2.084c-1.26-1.404-1.894-3.496-1.894-6.286V45.624h-3.298
							v-2.927l3.804-2.306l1.987-5.34h4.413v5.385h7.078v5.188h-7.078v12.188c0,0.982,0.272,1.709,0.828,2.178
							C341.554,60.456,342.28,60.689,343.189,60.689"/>
						<path clip-path="url(#SVGID_12_)" fill="#2A88C9" d="M266.159,32.651l-8.3,25.303h-0.143l-7.827-25.303h-3.561l-5.986,9.034
							v24.053h6.26V50.343c0-1.762-0.142-5.284-0.422-10.56h0.204l7.958,25.955h6.423l8.543-25.912h0.196
							c-0.181,4.164-0.282,6.724-0.307,7.694c-0.021,0.963-0.037,1.816-0.037,2.557v15.661h6.547V32.651H266.159z"/>
						<polygon clip-path="url(#SVGID_12_)" fill="#2A88C9" points="242.688,23.464 248.339,27.048 230.176,55.762 226.475,49.079 
													"/>
						<polygon clip-path="url(#SVGID_12_)" fill="#2A88C9" points="237.412,23.443 250.959,15.649 250.935,31.279 						"/>
					</g>
				</g>
			</g>
			<path fill="none" stroke="#2986C8" stroke-miterlimit="10" d="M103.868,59.034c0,25.219-20.462,45.683-45.678,45.683
				c-25.235,0-45.69-20.464-45.69-45.683c0-25.231,20.455-45.688,45.689-45.688C83.405,13.347,103.868,33.803,103.868,59.034z"/>
			<path fill="#2986C8" d="M89.377,28.127l-0.01,12.847l-2.764-1.598L68.326,66.872L76.67,79.38h-7.604l-5.14-8.375L58.76,79.38
				h-7.581l8.298-12.508L51.6,54.904h7.574l4.368,7.172l17.259-26.06l-2.603-1.51l11.156-6.418
				c-7.999-8.098-19.083-13.123-31.369-13.123c-24.338,0-44.063,19.73-44.063,44.068c0,13.921,6.465,26.314,16.546,34.396V47.079
				h18.45v5.594H37.181v8.298h10.922v5.577H37.181v31.335c6.198,3.309,13.28,5.21,20.805,5.21c24.339,0,44.067-19.729,44.067-44.061
				C102.054,46.985,97.221,36.079,89.377,28.127z"/>
		</g>
	</g>
</g>
</svg>
