<?xml version="1.0" encoding="utf-8"?>
<!-- Generator: Adobe Illustrator 16.0.0, SVG Export Plug-In . SVG Version: 6.00 Build 0)  -->
<!DOCTYPE svg PUBLIC "-//W3C//DTD SVG 1.1//EN" "http://www.w3.org/Graphics/SVG/1.1/DTD/svg11.dtd">
<svg version="1.1" id="Layer_1" xmlns="http://www.w3.org/2000/svg" xmlns:xlink="http://www.w3.org/1999/xlink" x="0px" y="0px"
	 width="100px" height="100px" viewBox="0 0 100 100" enable-background="new 0 0 100 100" xml:space="preserve">
<path fill="#575757" d="M93.571,28.808L68.939,4.177c-0.968-0.972-2.32-1.533-3.694-1.533H40.159
	c-7.219,0-13.081,5.873-13.081,13.082v5.232h-7.85c-7.215,0-13.087,5.868-13.087,13.08v49.706c0,7.215,5.872,13.087,13.087,13.087
	h41.862c7.214,0,13.082-5.872,13.082-13.087v-5.228h7.849c7.205,0,13.077-5.872,13.077-13.087V32.51
	C95.099,31.131,94.534,29.78,93.571,28.808z M68.939,11.577l17.227,17.231h-9.382c-4.33,0-7.854-3.523-7.854-7.85v-9.382H68.939z
	 M68.939,83.749c0,4.33-3.524,7.85-7.849,7.85H19.229c-4.33,0-7.85-3.52-7.85-7.85V34.041c0-4.328,3.52-7.849,7.85-7.849h23.548
	v13.082c0,7.212,5.862,13.081,13.076,13.081h13.087V83.749L68.939,83.749L68.939,83.749z M48.009,39.273v-9.379l17.236,17.229
	h-9.393C51.523,47.123,48.009,43.602,48.009,39.273z M89.866,65.43c0,4.336-3.524,7.854-7.854,7.854h-7.854V50.82
	c0-1.377-0.557-2.726-1.527-3.703L48.009,22.489c-0.974-0.969-2.325-1.53-3.705-1.53H32.306v-5.232c0-4.326,3.52-7.852,7.854-7.852
	h23.548v13.084c0,7.209,5.872,13.08,13.077,13.08h13.082V65.43z"/>
<path fill="#575757" d="M22.886,49.581c0,2.867,2.32,5.188,5.186,5.188c6.683,0.005,12.099,5.424,12.088,12.112
	c0,5.338-3.509,10.051-8.632,11.578v5.696h-6.913v-5.696c-5.128-1.527-8.642-6.245-8.642-11.587h6.913
	c0,2.859,2.32,5.186,5.186,5.186c2.864,0,5.185-2.326,5.185-5.186c0-2.87-2.32-5.19-5.185-5.19
	c-6.686-0.01-12.094-5.428-12.089-12.104c0-5.346,3.515-10.058,8.632-11.588v-5.687h6.913v5.687
	c5.128,1.527,8.643,6.245,8.643,11.592h-6.914c0-2.862-2.32-5.183-5.185-5.183C25.206,44.398,22.886,46.719,22.886,49.581z"/>
<rect x="45.856" y="56.464" fill="#575757" width="20.075" height="3.528"/>
<rect x="45.856" y="62.952" fill="#575757" width="20.075" height="3.523"/>
<rect x="45.856" y="69.44" fill="#575757" width="20.075" height="3.528"/>
<rect x="45.856" y="75.929" fill="#575757" width="20.075" height="3.533"/>
<rect x="45.856" y="82.412" fill="#575757" width="20.075" height="3.537"/>
</svg>
