<?xml version="1.0" encoding="utf-8"?>
<!-- Generator: Adobe Illustrator 16.0.0, SVG Export Plug-In . SVG Version: 6.00 Build 0)  -->
<!DOCTYPE svg PUBLIC "-//W3C//DTD SVG 1.1//EN" "http://www.w3.org/Graphics/SVG/1.1/DTD/svg11.dtd">
<svg version="1.1" id="Layer_1" xmlns="http://www.w3.org/2000/svg" xmlns:xlink="http://www.w3.org/1999/xlink" x="0px" y="0px"
	 width="123px" height="123px" viewBox="0 0 123 123" enable-background="new 0 0 123 123" xml:space="preserve">
<path fill="none" stroke="#2988CA" stroke-miterlimit="10" d="M120,61.5c0,32.305-26.193,58.5-58.5,58.5C29.192,120,3,93.805,3,61.5
	C3,29.192,29.192,3,61.5,3C93.807,3,120,29.192,120,61.5z"/>
<circle fill="#2988CA" cx="61.254" cy="61.5" r="56.432"/>
<polyline fill="#2988CA" points="34.165,65.024 49.155,65.024 49.155,72.606 34.165,72.606 34.165,65.024 34.165,65.024 "/>
<path fill="#FFFFFF" d="M24.995,90.245"/>
<polygon fill="#FFFFFF" points="91.465,30.538 98.598,35.264 72.236,75.05 67.939,66.038 "/>
<g>
	<path fill="#FFFFFF" d="M63.154,71.546l-10.096-15.34h9.703l6.086,9.984l6.141-9.984h9.703l-10.207,15.34L85.17,87.56h-9.732
		l-6.59-10.741L62.229,87.56h-9.703L63.154,71.546z"/>
</g>
<polygon fill="#FFFFFF" points="87.857,29.779 101.453,21.958 101.428,37.641 "/>
<polygon fill="#FFFFFF" points="49.636,53.361 49.636,46.199 26.01,46.199 26.01,87.42 34.609,87.42 34.609,71.123 48.593,71.123 
	48.593,63.99 34.609,63.99 34.609,53.361 "/>
<polygon fill="#FFFFFF" points="26.01,87.078 34.609,87.078 34.609,111.472 26.01,106.209 "/>
<g>
</g>
<g>
</g>
<g>
</g>
<g>
</g>
<g>
</g>
<g>
</g>
</svg>
