<?xml version="1.0" encoding="utf-8"?>
<!-- Generator: Adobe Illustrator 16.0.0, SVG Export Plug-In . SVG Version: 6.00 Build 0)  -->
<!DOCTYPE svg PUBLIC "-//W3C//DTD SVG 1.1//EN" "http://www.w3.org/Graphics/SVG/1.1/DTD/svg11.dtd">
<svg version="1.1" xmlns="http://www.w3.org/2000/svg" xmlns:xlink="http://www.w3.org/1999/xlink" x="0px" y="0px" width="219px"
	 height="176px" viewBox="0 0 219 176" enable-background="new 0 0 219 176" xml:space="preserve">
<g id="Layer_1">
	<path fill="none" stroke="#2988CA" stroke-miterlimit="10" d="M170.666,62.5c0,32.305-26.193,58.5-58.5,58.5
		c-32.308,0-58.5-26.195-58.5-58.5c0-32.308,26.192-58.5,58.5-58.5C144.473,4,170.666,30.192,170.666,62.5z"/>
	<circle fill="#2988CA" cx="111.92" cy="62.5" r="56.432"/>
	<polyline fill="#2988CA" points="84.831,66.024 99.821,66.024 99.821,73.606 84.831,73.606 84.831,66.024 84.831,66.024 	"/>
	<path fill="#FFFFFF" d="M75.661,91.245"/>
	<polygon fill="#FFFFFF" points="142.131,31.538 149.264,36.264 122.902,76.05 118.605,67.038 	"/>
	<g>
		<path fill="#FFFFFF" d="M113.82,72.546l-10.096-15.34h9.703l6.086,9.984l6.141-9.984h9.703l-10.207,15.34l10.686,16.014h-9.732
			l-6.59-10.741l-6.619,10.741h-9.703L113.82,72.546z"/>
	</g>
	<polygon fill="#FFFFFF" points="138.523,30.779 152.119,22.958 152.094,38.641 	"/>
	<g>
		<path fill="#2988CA" d="M22.73,167.149h-5.545V140.57H32.42v4.617h-9.69v6.854h9.018v4.601H22.73V167.149z"/>
		<path fill="#2988CA" d="M55.655,156.95c0,3.309-0.873,5.896-2.618,7.763c-1.746,1.867-4.176,2.8-7.291,2.8
			c-1.952,0-3.672-0.427-5.163-1.281s-2.636-2.082-3.436-3.682s-1.2-3.466-1.2-5.6c0-3.32,0.867-5.902,2.6-7.745
			c1.733-1.842,4.169-2.764,7.309-2.764c1.951,0,3.672,0.425,5.163,1.273c1.491,0.848,2.636,2.066,3.436,3.654
			S55.655,154.817,55.655,156.95z M41.602,156.95c0,2.012,0.33,3.533,0.991,4.563s1.736,1.545,3.227,1.545
			c1.479,0,2.542-0.512,3.191-1.536c0.648-1.023,0.973-2.548,0.973-4.572c0-2.012-0.328-3.521-0.982-4.526s-1.727-1.51-3.218-1.51
			c-1.479,0-2.545,0.5-3.2,1.5C41.929,153.414,41.602,154.927,41.602,156.95z"/>
		<path fill="#2988CA" d="M71.581,146.441c0.751,0,1.375,0.055,1.873,0.164l-0.418,5.199c-0.449-0.121-0.994-0.182-1.636-0.182
			c-1.77,0-3.148,0.455-4.136,1.363c-0.988,0.909-1.482,2.183-1.482,3.818v10.345h-5.545v-20.325h4.2l0.818,3.418h0.272
			c0.63-1.14,1.482-2.058,2.554-2.755C69.154,146.791,70.32,146.441,71.581,146.441z"/>
		<path fill="#2988CA" d="M86.343,167.513c-3.272,0-5.83-0.902-7.672-2.709c-1.842-1.806-2.764-4.363-2.764-7.672
			c0-3.405,0.852-6.038,2.555-7.899c1.703-1.859,4.057-2.791,7.063-2.791c2.873,0,5.108,0.818,6.708,2.455
			c1.601,1.637,2.4,3.896,2.4,6.781v2.69H81.526c0.06,1.576,0.527,2.807,1.4,3.69c0.873,0.885,2.097,1.327,3.672,1.327
			c1.224,0,2.381-0.127,3.472-0.382c1.091-0.254,2.23-0.66,3.418-1.218v4.291c-0.97,0.484-2.006,0.845-3.109,1.081
			S87.931,167.513,86.343,167.513z M85.562,150.387c-1.176,0-2.097,0.373-2.763,1.119c-0.667,0.744-1.048,1.803-1.146,3.172h7.781
			c-0.024-1.369-0.382-2.428-1.073-3.172C87.67,150.76,86.737,150.387,85.562,150.387z"/>
		<path fill="#2988CA" d="M103.306,156.769l-6.545-9.944h6.29l3.945,6.472l3.981-6.472h6.29l-6.617,9.944l6.927,10.381h-6.309
			l-4.272-6.963l-4.29,6.963h-6.291L103.306,156.769z"/>
	</g>
	<path fill="#2988CA" d="M199.159,188.414"/>
	<g>
		<g>
			<path fill="#2988CA" d="M128.929,167.149l-6.399-20.853h-0.163c0.229,4.242,0.345,7.072,0.345,8.49v12.362h-5.036V140.57h7.673
				l6.29,20.325h0.109l6.672-20.325h7.672v26.579h-5.254v-12.581c0-0.594,0.009-1.278,0.027-2.055
				c0.019-0.775,0.1-2.836,0.245-6.181h-0.163l-6.854,20.816H128.929z"/>
			<path fill="#2988CA" d="M165.253,167.149l-1.072-2.763h-0.146c-0.934,1.175-1.894,1.99-2.882,2.444
				c-0.987,0.454-2.275,0.683-3.863,0.683c-1.951,0-3.487-0.559-4.608-1.674c-1.121-1.114-1.682-2.702-1.682-4.763
				c0-2.157,0.755-3.748,2.264-4.772c1.509-1.023,3.784-1.591,6.826-1.699l3.527-0.109v-0.891c0-2.061-1.055-3.091-3.163-3.091
				c-1.625,0-3.533,0.491-5.728,1.472l-1.836-3.744c2.339-1.225,4.933-1.836,7.781-1.836c2.728,0,4.818,0.594,6.272,1.781
				s2.182,2.994,2.182,5.418v13.544H165.253z M163.617,157.732l-2.146,0.072c-1.612,0.049-2.812,0.34-3.6,0.873
				s-1.182,1.346-1.182,2.436c0,1.564,0.896,2.346,2.69,2.346c1.285,0,2.313-0.369,3.082-1.109c0.77-0.738,1.154-1.721,1.154-2.945
				V157.732z"/>
			<path fill="#2988CA" d="M186.179,146.441c0.752,0,1.376,0.055,1.873,0.164l-0.418,5.199c-0.449-0.121-0.994-0.182-1.637-0.182
				c-1.77,0-3.148,0.455-4.136,1.363c-0.988,0.91-1.481,2.182-1.481,3.818v10.345h-5.545v-20.325h4.199l0.818,3.418h0.272
				c0.63-1.14,1.481-2.058,2.555-2.755C183.752,146.791,184.919,146.441,186.179,146.441z"/>
			<path fill="#2988CA" d="M200.305,163.096c0.97,0,2.133-0.213,3.491-0.637v4.127c-1.382,0.618-3.079,0.928-5.091,0.928
				c-2.218,0-3.833-0.561-4.845-1.682c-1.013-1.121-1.519-2.803-1.519-5.046v-9.799h-2.654v-2.346l3.055-1.854l1.6-4.29h3.545v4.327
				h5.69v4.163h-5.69v9.799c0,0.788,0.221,1.37,0.664,1.745C198.993,162.907,199.577,163.096,200.305,163.096z"/>
		</g>
	</g>
	<polygon fill="#FFFFFF" points="123.122,139.622 117.122,148.664 116.632,147.89 122.144,139.178 	"/>
	<polygon fill="#2988CA" points="119.563,133.188 124.112,136.067 109.518,159.135 106.538,153.771 	"/>
	<polygon fill="#2988CA" points="115.325,133.171 126.21,126.909 126.192,139.468 	"/>
</g>
<g id="Layer_2">
	<polygon fill="#FFFFFF" points="100.302,54.361 100.302,47.199 76.676,47.199 76.676,88.419 85.275,88.419 85.275,72.123 
		99.259,72.123 99.259,64.99 85.275,64.99 85.275,54.361 	"/>
	<polygon fill="#FFFFFF" points="76.676,88.078 85.275,88.078 85.275,112.472 76.676,107.209 	"/>
</g>
<g id="Layer_3">
	<g>
	</g>
	<g>
	</g>
	<g>
	</g>
	<g>
	</g>
	<g>
	</g>
	<g>
	</g>
</g>
</svg>
