<?xml version="1.0" encoding="utf-8"?>
<!-- Generator: Adobe Illustrator 16.0.0, SVG Export Plug-In . SVG Version: 6.00 Build 0)  -->
<!DOCTYPE svg PUBLIC "-//W3C//DTD SVG 1.1//EN" "http://www.w3.org/Graphics/SVG/1.1/DTD/svg11.dtd">
<svg version="1.1" id="Layer_1" xmlns="http://www.w3.org/2000/svg" xmlns:xlink="http://www.w3.org/1999/xlink" x="0px" y="0px"
	 width="219px" height="48px" viewBox="0 0 219 48" enable-background="new 0 0 219 48" xml:space="preserve">
<g>
	<path fill="#2988CA" d="M12.508,46.217h-6.14V16.785h16.87v5.113h-10.73v7.59h9.985v5.093h-9.985V46.217z"/>
	<path fill="#2988CA" d="M48.965,34.923c0,3.664-0.966,6.53-2.899,8.597s-4.624,3.1-8.073,3.1c-2.161,0-4.066-0.473-5.717-1.419
		c-1.65-0.946-2.919-2.305-3.805-4.076s-1.329-3.839-1.329-6.201c0-3.677,0.959-6.535,2.879-8.575c1.919-2.04,4.617-3.06,8.093-3.06
		c2.161,0,4.066,0.47,5.717,1.409c1.651,0.94,2.919,2.289,3.805,4.046S48.965,32.562,48.965,34.923z M33.404,34.923
		c0,2.229,0.366,3.913,1.097,5.054s1.922,1.711,3.573,1.711c1.637,0,2.815-0.567,3.533-1.701c0.718-1.134,1.077-2.821,1.077-5.063
		c0-2.228-0.362-3.898-1.087-5.013c-0.725-1.113-1.913-1.671-3.563-1.671c-1.638,0-2.818,0.554-3.543,1.661
		C33.766,31.008,33.404,32.682,33.404,34.923z"/>
	<path fill="#2988CA" d="M66.6,23.288c0.832,0,1.523,0.06,2.074,0.181l-0.463,5.758c-0.497-0.135-1.101-0.202-1.812-0.202
		c-1.959,0-3.486,0.504-4.58,1.511c-1.094,1.006-1.641,2.415-1.641,4.227v11.455h-6.14V23.71h4.65l0.906,3.785h0.302
		c0.698-1.262,1.641-2.278,2.829-3.05C63.913,23.673,65.204,23.288,66.6,23.288z"/>
	<path fill="#2988CA" d="M82.946,46.619c-3.624,0-6.456-0.999-8.495-2.999c-2.04-2-3.06-4.832-3.06-8.495
		c0-3.771,0.943-6.688,2.829-8.748c1.885-2.06,4.492-3.089,7.821-3.089c3.181,0,5.657,0.906,7.428,2.718
		c1.771,1.812,2.657,4.314,2.657,7.508v2.979H77.612c0.067,1.745,0.583,3.107,1.55,4.087s2.322,1.47,4.066,1.47
		c1.355,0,2.637-0.141,3.845-0.423s2.469-0.731,3.785-1.349v4.751c-1.074,0.537-2.221,0.936-3.442,1.197
		C86.194,46.488,84.705,46.619,82.946,46.619z M82.081,27.656c-1.302,0-2.322,0.412-3.06,1.237
		c-0.738,0.826-1.161,1.997-1.269,3.514h8.616c-0.027-1.517-0.423-2.688-1.188-3.514C84.416,28.068,83.382,27.656,82.081,27.656z"/>
	<path fill="#2988CA" d="M101.729,34.722L94.481,23.71h6.965l4.368,7.167l4.409-7.167h6.966l-7.328,11.011l7.67,11.495h-6.985
		l-4.731-7.71l-4.751,7.71h-6.965L101.729,34.722z"/>
</g>
<path fill="#2988CA" d="M207.868,69.764"/>
<g>
	<g>
		<path fill="#2988CA" d="M130.102,46.217l-7.086-23.09h-0.182c0.255,4.698,0.383,7.831,0.383,9.401v13.689h-5.576V16.785h8.495
			l6.966,22.507h0.12l7.389-22.507h8.495v29.432h-5.817V32.286c0-0.657,0.01-1.416,0.029-2.274c0.021-0.859,0.111-3.142,0.272-6.845
			h-0.182l-7.589,23.05H130.102z"/>
		<path fill="#2988CA" d="M170.323,46.217l-1.188-3.06h-0.161c-1.033,1.302-2.097,2.204-3.19,2.707
			c-1.094,0.504-2.52,0.755-4.278,0.755c-2.16,0-3.861-0.617-5.103-1.852c-1.242-1.234-1.862-2.993-1.862-5.274
			c0-2.389,0.835-4.15,2.506-5.284c1.671-1.135,4.19-1.762,7.56-1.883l3.905-0.121v-0.986c0-2.281-1.168-3.422-3.503-3.422
			c-1.799,0-3.912,0.544-6.341,1.631l-2.033-4.147c2.59-1.355,5.462-2.033,8.616-2.033c3.02,0,5.334,0.658,6.945,1.974
			c1.61,1.315,2.415,3.314,2.415,5.998v14.998H170.323z M168.512,35.789l-2.375,0.08c-1.785,0.054-3.114,0.376-3.986,0.967
			s-1.309,1.489-1.309,2.697c0,1.731,0.993,2.597,2.979,2.597c1.423,0,2.56-0.409,3.412-1.228s1.278-1.905,1.278-3.262V35.789z"/>
		<path fill="#2988CA" d="M193.495,23.288c0.832,0,1.522,0.06,2.073,0.181l-0.463,5.758c-0.497-0.135-1.101-0.202-1.813-0.202
			c-1.959,0-3.485,0.504-4.579,1.511c-1.095,1.006-1.641,2.415-1.641,4.227v11.455h-6.141V23.71h4.65l0.906,3.785h0.302
			c0.697-1.262,1.641-2.278,2.828-3.05C190.808,23.673,192.099,23.288,193.495,23.288z"/>
		<path fill="#2988CA" d="M209.137,41.728c1.073,0,2.361-0.234,3.865-0.704v4.569c-1.53,0.685-3.409,1.026-5.637,1.026
			c-2.456,0-4.245-0.62-5.365-1.862c-1.121-1.241-1.681-3.103-1.681-5.586V28.32h-2.939v-2.598l3.382-2.053l1.771-4.751h3.926v4.792
			h6.301v4.61h-6.301v10.851c0,0.873,0.244,1.517,0.734,1.933S208.331,41.728,209.137,41.728z"/>
	</g>
</g>
<polygon fill="#FFFFFF" points="123.672,15.736 117.028,25.748 116.485,24.891 122.589,15.244 "/>
<polygon fill="#2988CA" points="119.732,8.612 124.769,11.8 108.608,37.343 105.309,31.404 "/>
<polygon fill="#2988CA" points="115.039,8.593 127.092,1.659 127.072,15.565 "/>
<g>
</g>
<g>
</g>
<g>
</g>
<g>
</g>
<g>
</g>
<g>
</g>
</svg>
