<?xml version="1.0" encoding="utf-8"?>
<!-- Generator: Adobe Illustrator 16.0.0, SVG Export Plug-In . SVG Version: 6.00 Build 0)  -->
<!DOCTYPE svg PUBLIC "-//W3C//DTD SVG 1.1//EN" "http://www.w3.org/Graphics/SVG/1.1/DTD/svg11.dtd">
<svg version="1.1" id="Layer_1" xmlns="http://www.w3.org/2000/svg" xmlns:xlink="http://www.w3.org/1999/xlink" x="0px" y="0px"
	 width="383px" height="96px" viewBox="0 0 383 96" enable-background="new 0 0 383 96" xml:space="preserve">
<g>
	<path fill="#2988CA" d="M113.097,69.94h-8.228V30.501h22.606v6.852h-14.378v10.17h13.38v6.825h-13.38V69.94z"/>
	<path fill="#2988CA" d="M161.951,54.807c0,4.91-1.295,8.75-3.885,11.519c-2.59,2.771-6.196,4.154-10.817,4.154
		c-2.896,0-5.449-0.634-7.661-1.901c-2.212-1.268-3.912-3.089-5.099-5.463s-1.78-5.143-1.78-8.309c0-4.928,1.286-8.758,3.857-11.492
		c2.572-2.733,6.187-4.1,10.844-4.1c2.896,0,5.449,0.629,7.662,1.888c2.212,1.259,3.911,3.066,5.098,5.422
		S161.951,51.642,161.951,54.807z M141.098,54.807c0,2.985,0.49,5.243,1.47,6.771c0.98,1.528,2.576,2.293,4.788,2.293
		c2.194,0,3.772-0.76,4.734-2.279c0.962-1.52,1.443-3.781,1.443-6.785c0-2.985-0.485-5.225-1.457-6.717
		c-0.971-1.493-2.563-2.239-4.775-2.239c-2.194,0-3.776,0.742-4.748,2.226C141.583,49.561,141.098,51.804,141.098,54.807z"/>
	<path fill="#2988CA" d="M185.582,39.215c1.115,0,2.041,0.081,2.778,0.243l-0.621,7.715c-0.666-0.179-1.475-0.27-2.428-0.27
		c-2.626,0-4.671,0.674-6.137,2.023c-1.466,1.349-2.199,3.237-2.199,5.665v15.35h-8.228V39.781h6.231l1.214,5.071h0.404
		c0.935-1.69,2.199-3.052,3.791-4.087C181.98,39.732,183.711,39.215,185.582,39.215z"/>
	<path fill="#2988CA" d="M207.486,70.479c-4.855,0-8.65-1.339-11.385-4.019c-2.732-2.68-4.1-6.475-4.1-11.385
		c0-5.053,1.264-8.96,3.789-11.721c2.527-2.76,6.021-4.141,10.48-4.141c4.264,0,7.58,1.214,9.955,3.642
		c2.373,2.428,3.561,5.782,3.561,10.063v3.992h-19.449c0.09,2.338,0.781,4.163,2.076,5.476c1.295,1.313,3.111,1.97,5.449,1.97
		c1.816,0,3.535-0.188,5.152-0.566c1.619-0.378,3.309-0.98,5.072-1.808v6.366c-1.439,0.72-2.977,1.255-4.613,1.605
		S209.842,70.479,207.486,70.479z M206.326,45.068c-1.744,0-3.111,0.553-4.1,1.659c-0.99,1.106-1.557,2.675-1.701,4.707h11.547
		c-0.037-2.032-0.566-3.601-1.592-4.707S208.07,45.068,206.326,45.068z"/>
	<path fill="#2988CA" d="M232.655,54.537l-9.712-14.756h9.334l5.854,9.604l5.908-9.604h9.333l-9.819,14.756l10.278,15.403h-9.36
		l-6.34-10.332l-6.366,10.332h-9.334L232.655,54.537z"/>
</g>
<path fill="#2988CA" d="M374.883,101.492"/>
<g>
	<g>
		<path fill="#2988CA" d="M270.676,69.941L261.18,39h-0.242c0.341,6.294,0.512,10.494,0.512,12.598v18.344h-7.472V30.502h11.384
			l9.334,30.16h0.161l9.9-30.16h11.384v39.439h-7.796V51.274c0-0.882,0.014-1.897,0.041-3.049c0.026-1.151,0.147-4.208,0.363-9.172
			h-0.242l-10.17,30.888H270.676z"/>
		<path fill="#2988CA" d="M324.573,69.941l-1.591-4.101h-0.216c-1.386,1.745-2.811,2.954-4.276,3.629
			c-1.466,0.674-3.376,1.011-5.732,1.011c-2.896,0-5.175-0.826-6.838-2.481c-1.664-1.654-2.495-4.01-2.495-7.067
			c0-3.201,1.119-5.562,3.358-7.081s5.615-2.361,10.129-2.522l5.233-0.162v-1.322c0-3.057-1.564-4.585-4.693-4.585
			c-2.41,0-5.243,0.729-8.498,2.185l-2.725-5.557c3.471-1.816,7.32-2.725,11.546-2.725c4.047,0,7.149,0.881,9.307,2.644
			c2.158,1.763,3.237,4.442,3.237,8.039v20.098H324.573z M322.146,55.968l-3.183,0.108c-2.393,0.071-4.173,0.503-5.342,1.294
			c-1.169,0.792-1.753,1.997-1.753,3.615c0,2.32,1.33,3.479,3.992,3.479c1.906,0,3.431-0.548,4.572-1.646
			c1.143-1.097,1.713-2.553,1.713-4.37V55.968z"/>
		<path fill="#2988CA" d="M355.623,39.216c1.114,0,2.041,0.081,2.778,0.243l-0.62,7.715c-0.666-0.179-1.475-0.27-2.428-0.27
			c-2.626,0-4.672,0.674-6.138,2.023c-1.466,1.348-2.198,3.237-2.198,5.665v15.35h-8.228V39.782h6.231l1.214,5.071h0.404
			c0.936-1.69,2.199-3.052,3.79-4.087C352.021,39.733,353.752,39.216,355.623,39.216z"/>
		<path fill="#2988CA" d="M376.583,63.926c1.439,0,3.165-0.314,5.18-0.944v6.124c-2.05,0.917-4.568,1.375-7.553,1.375
			c-3.291,0-5.688-0.831-7.189-2.495c-1.502-1.663-2.253-4.158-2.253-7.485V45.959h-3.938v-3.48l4.532-2.751l2.374-6.366h5.261v6.42
			h8.443v6.177h-8.443V60.5c0,1.169,0.327,2.032,0.984,2.59C374.637,63.647,375.505,63.926,376.583,63.926z"/>
	</g>
</g>
<polygon fill="#FFFFFF" points="262.057,29.096 253.154,42.512 252.427,41.363 260.605,28.436 "/>
<polygon fill="#2988CA" points="256.777,19.548 263.527,23.82 241.871,58.049 237.45,50.09 "/>
<polygon fill="#2988CA" points="250.489,19.523 266.64,10.231 266.613,28.866 "/>
<circle fill="none" stroke="#2988CA" stroke-miterlimit="10" cx="48.832" cy="48" r="46.667"/>
<circle fill="#2988CA" cx="48.636" cy="48" r="45.017"/>
<polyline fill="#2988CA" points="27.026,50.811 38.984,50.811 38.984,56.86 27.026,56.86 27.026,50.811 27.026,50.811 "/>
<path fill="#FFFFFF" d="M19.711,70.931"/>
<polygon fill="#FFFFFF" points="72.736,23.3 78.427,27.071 57.397,58.809 53.969,51.62 "/>
<g>
	<path fill="#FFFFFF" d="M50.153,56.016l-8.054-12.237h7.741l4.854,7.965l4.899-7.965h7.741l-8.144,12.237l8.524,12.774h-7.763
		l-5.257-8.568l-5.28,8.568h-7.741L50.153,56.016z"/>
</g>
<polygon fill="#FFFFFF" points="69.858,22.696 80.703,16.457 80.683,28.967 "/>
<polygon fill="#FFFFFF" points="39.368,41.507 39.368,35.794 20.521,35.794 20.521,68.677 27.38,68.677 27.38,55.676 38.537,55.676 
	38.537,49.986 27.38,49.986 27.38,41.507 "/>
<polygon fill="#FFFFFF" points="20.521,68.404 27.38,68.404 27.38,87.862 20.521,83.667 "/>
<g>
</g>
<g>
</g>
<g>
</g>
<g>
</g>
<g>
</g>
<g>
</g>
</svg>
