<?xml version="1.0" encoding="utf-8"?>
<!-- Generator: Adobe Illustrator 15.1.0, SVG Export Plug-In  -->
<!DOCTYPE svg PUBLIC "-//W3C//DTD SVG 1.1//EN" "http://www.w3.org/Graphics/SVG/1.1/DTD/svg11.dtd" [
	<!ENTITY ns_flows "http://ns.adobe.com/Flows/1.0/">
]>
<svg version="1.1"
	 xmlns="http://www.w3.org/2000/svg" xmlns:xlink="http://www.w3.org/1999/xlink" xmlns:a="http://ns.adobe.com/AdobeSVGViewerExtensions/3.0/"
	 x="0px" y="0px" width="512px" height="512px" viewBox="0 0 512 512" enable-background="new 0 0 512 512" xml:space="preserve">
<defs>
</defs>
<path fill="#0070BE" d="M479.6,211.6h-12.5v-84.4c0-19.8-15.6-35.4-34.398-35.4h-9.4V35.4C423.3,15.6,408.7,0,391,0c0,0-1,0-2.1,0
	L32.3,91.7c-0.1,0-0.3,0.1-0.4,0.1C14.3,93.2,0,108.3,0,127.2V454.6C0,474.4,15.6,490,34.4,490h398.3
	c19.8,0,35.398-15.6,35.398-35.4V368h11.5c6.302,0,10.4-4.2,10.4-10.4V222.1C490,215.8,484.8,211.6,479.6,211.6z M393,19.8
	c5.2,1,10.4,7.3,10.4,15.6v56.3H115.7L393,19.8L393,19.8z M447.3,454.6c0,8.302-6.3,15.602-14.6,15.602H34.4
	c-8.3,0-14.6-7.3-14.6-15.602V127.2c0-8.3,6.3-15.6,14.6-15.6h397.2c8.302,0,14.602,7.3,14.602,15.6v84.4H343
	c-43.8,0-78.2,34.4-78.2,78.2S300.2,368,343,368h104.3V454.6L447.3,454.6z M469.1,348.2H343c-31.3,0-57.3-26.101-57.3-57.3
	c0-31.2,26.1-57.3,57.3-57.3h126.1V348.2z"/>
<path fill="#0070BE" d="M331.5,291.9c0,6.3,5.2,10.398,10.4,10.398h9.398c5.2,0,10.4-4.199,10.4-10.398c0-6.301-5.2-10.4-10.4-10.4
	H342C335.7,281.5,331.5,285.7,331.5,291.9z"/>
</svg>
