<?xml version="1.0" encoding="utf-8"?>
<!-- Generator: Adobe Illustrator 15.1.0, SVG Export Plug-In . SVG Version: 6.00 Build 0)  -->
<!DOCTYPE svg PUBLIC "-//W3C//DTD SVG 1.1//EN" "http://www.w3.org/Graphics/SVG/1.1/DTD/svg11.dtd">
<svg version="1.1" id="Layer_1" xmlns="http://www.w3.org/2000/svg" xmlns:xlink="http://www.w3.org/1999/xlink" x="0px" y="0px"
	 width="615.073px" height="123px" viewBox="0 0 615.073 123" enable-background="new 0 0 615.073 123" xml:space="preserve">
<g>
	<defs>
		<rect id="SVGID_1_" width="123" height="123"/>
	</defs>
	<clipPath id="SVGID_2_">
		<use xlink:href="#SVGID_1_"  overflow="visible"/>
	</clipPath>
	<path clip-path="url(#SVGID_2_)" fill="none" stroke="#2886C7" stroke-width="1.75" stroke-miterlimit="10" d="M121.415,61.502
		c0,33.076-26.837,59.914-59.908,59.914c-33.095,0-59.922-26.838-59.922-59.914c0-33.091,26.827-59.919,59.922-59.919
		C94.578,1.583,121.415,28.412,121.415,61.502z"/>
	<path clip-path="url(#SVGID_2_)" fill="#2886C7" d="M102.41,20.968l-0.013,16.848l-3.625-2.095L74.802,71.783l10.942,16.404h-9.973
		l-6.74-10.986l-6.775,10.986h-9.943l10.883-16.404l-10.33-15.698h9.933l5.729,9.407l22.637-34.176l-3.414-1.98l14.631-8.416
		C91.892,10.298,77.354,3.708,61.241,3.708c-31.92,0-57.789,25.874-57.789,57.795c0,18.258,8.479,34.511,21.7,45.111V45.826h24.197
		v7.336H33.954v10.883H48.28v7.314H33.954v41.096c8.129,4.342,17.418,6.834,27.287,6.834c31.92,0,57.795-25.873,57.795-57.787
		C119.036,45.701,112.697,31.396,102.41,20.968"/>
</g>
<g>
	<polygon fill="#2987C8" points="147.333,109.386 133.456,109.386 133.456,42.869 171.583,42.869 171.583,54.427 147.333,54.427 
		147.333,71.577 169.897,71.577 169.897,83.087 147.333,83.087 	"/>
	<g>
		<defs>
			<rect id="SVGID_3_" x="116.545" y="5.271" width="498.527" height="108.457"/>
		</defs>
		<clipPath id="SVGID_4_">
			<use xlink:href="#SVGID_3_"  overflow="visible"/>
		</clipPath>
		<path clip-path="url(#SVGID_4_)" fill="#2987C8" d="M229.724,83.857c0,8.284-2.183,14.76-6.551,19.431
			c-4.366,4.671-10.448,7.006-18.243,7.006c-4.884,0-9.19-1.07-12.921-3.208c-3.731-2.136-6.597-5.209-8.598-9.211
			c-2.002-4.005-3.004-8.674-3.004-14.018c0-8.305,2.169-14.767,6.506-19.375c4.337-4.612,10.435-6.917,18.289-6.917
			c4.884,0,9.191,1.061,12.922,3.184c3.73,2.124,6.596,5.172,8.599,9.144C228.723,73.87,229.724,78.526,229.724,83.857
			 M194.557,83.857c0,5.039,0.825,8.844,2.479,11.425c1.653,2.578,4.346,3.867,8.075,3.867c3.699,0,6.362-1.284,7.983-3.844
			c1.626-2.566,2.437-6.378,2.437-11.448c0-5.029-0.819-8.809-2.457-11.323c-1.638-2.52-4.323-3.778-8.054-3.778
			c-3.699,0-6.368,1.253-8.006,3.755C195.375,75.011,194.557,78.798,194.557,83.857"/>
		<path clip-path="url(#SVGID_4_)" fill="#2987C8" d="M269.579,57.566c1.88,0,3.441,0.136,4.687,0.408l-1.048,13.013
			c-1.121-0.303-2.487-0.456-4.093-0.456c-4.431,0-7.879,1.137-10.351,3.411c-2.473,2.274-3.709,5.461-3.709,9.556v25.888h-13.875
			V58.521h10.511l2.046,8.552h0.683c1.574-2.85,3.707-5.148,6.39-6.892C263.505,58.435,266.421,57.566,269.579,57.566"/>
		<path clip-path="url(#SVGID_4_)" fill="#2987C8" d="M306.522,110.294c-8.191,0-14.589-2.259-19.201-6.776
			c-4.609-4.523-6.914-10.921-6.914-19.201c0-8.521,2.13-15.11,6.392-19.766c4.26-4.658,10.154-6.985,17.677-6.985
			c7.186,0,12.783,2.046,16.785,6.141c4.006,4.096,6.005,9.753,6.005,16.971v6.734h-32.801c0.152,3.94,1.322,7.021,3.502,9.232
			c2.183,2.216,5.248,3.323,9.19,3.323c3.065,0,5.964-0.321,8.692-0.956c2.732-0.634,5.578-1.649,8.553-3.049v10.739
			c-2.429,1.213-5.021,2.113-7.779,2.708C313.862,110,310.495,110.294,306.522,110.294 M304.567,67.438
			c-2.942,0-5.248,0.933-6.918,2.796c-1.668,1.868-2.622,4.517-2.864,7.941h19.47c-0.061-3.425-0.955-6.073-2.681-7.941
			C309.842,68.37,307.507,67.438,304.567,67.438"/>
		<polygon clip-path="url(#SVGID_4_)" fill="#2987C8" points="348.967,83.408 332.589,58.52 348.333,58.52 358.201,74.717 
			368.169,58.52 383.907,58.52 367.345,83.408 384.679,109.386 368.894,109.386 358.201,91.958 347.467,109.386 331.724,109.386 		
			"/>
		<path clip-path="url(#SVGID_4_)" fill="#2987C8" d="M503.997,109.411l-2.695-6.913h-0.348c-2.33,2.915-4.729,4.967-7.209,6.107
			c-2.494,1.132-5.703,1.695-9.67,1.695c-4.889,0-8.744-1.396-11.531-4.166c-2.805-2.808-4.217-6.788-4.217-11.919
			c0-5.405,1.895-9.39,5.672-11.961c3.792-2.554,9.468-3.973,17.087-4.243l8.805-0.275v-2.229c0-5.154-2.623-7.74-7.912-7.74
			c-4.045,0-8.826,1.247-14.326,3.694l-4.578-9.372c5.845-3.058,12.333-4.594,19.464-4.594c6.82,0,12.053,1.482,15.691,4.448
			c3.617,2.979,5.465,7.502,5.465,13.563v33.904H503.997z M499.891,85.828l-5.348,0.189c-4.041,0.128-7.033,0.847-9.008,2.188
			c-1.973,1.336-2.977,3.358-2.977,6.104c0,3.902,2.254,5.86,6.754,5.86c3.213,0,5.799-0.924,7.693-2.773
			c1.934-1.859,2.885-4.307,2.885-7.366V85.828z"/>
		<path clip-path="url(#SVGID_4_)" fill="#2987C8" d="M556.375,57.587c1.863,0,3.436,0.132,4.67,0.4l-1.051,13.01
			c-1.113-0.297-2.475-0.453-4.072-0.453c-4.453,0-7.887,1.148-10.346,3.424c-2.492,2.265-3.73,5.453-3.73,9.556v25.888h-13.869
			V58.541h10.512l2.037,8.548h0.682c1.584-2.839,3.711-5.153,6.404-6.891C550.295,58.451,553.213,57.587,556.375,57.587"/>
		<path clip-path="url(#SVGID_4_)" fill="#2987C8" d="M591.731,99.263c2.416,0,5.314-0.529,8.719-1.599v10.334
			c-3.449,1.536-7.699,2.303-12.73,2.303c-5.563,0-9.59-1.396-12.131-4.19c-2.533-2.821-3.807-7.028-3.807-12.637V68.969h-6.629
			v-5.884l7.646-4.635l3.994-10.737h8.873V58.54h14.23v10.429h-14.23v24.505c0,1.977,0.549,3.436,1.666,4.378
			C588.442,98.79,589.903,99.263,591.731,99.263"/>
		<path clip-path="url(#SVGID_4_)" fill="#2987C8" d="M436.856,42.886l-16.688,50.873h-0.289l-15.736-50.873h-7.158l-12.037,18.165
			v48.36h12.588V78.458c0-3.543-0.285-10.625-0.85-21.231h0.41l16,52.184h12.914l17.178-52.099h0.395
			c-0.363,8.373-0.568,13.52-0.617,15.47c-0.043,1.937-0.074,3.653-0.074,5.141v31.488h13.164V42.886H436.856z"/>
		<polygon clip-path="url(#SVGID_4_)" fill="#2987C8" points="389.665,24.416 401.028,31.622 364.51,89.353 357.067,75.915 		"/>
		<polygon clip-path="url(#SVGID_4_)" fill="#2987C8" points="379.056,24.373 406.294,8.704 406.245,40.128 		"/>
	</g>
</g>
</svg>
