<?xml version="1.0" encoding="utf-8"?>
<!-- Generator: Adobe Illustrator 15.1.0, SVG Export Plug-In . SVG Version: 6.00 Build 0)  -->
<!DOCTYPE svg PUBLIC "-//W3C//DTD SVG 1.1//EN" "http://www.w3.org/Graphics/SVG/1.1/DTD/svg11.dtd">
<svg version="1.1" id="Layer_1" xmlns="http://www.w3.org/2000/svg" xmlns:xlink="http://www.w3.org/1999/xlink" x="0px" y="0px"
	 width="671.166px" height="179.363px" viewBox="0 0 671.166 179.363" enable-background="new 0 0 671.166 179.363"
	 xml:space="preserve">
<g>
	<defs>
		<rect id="SVGID_1_" width="179.363" height="179.363"/>
	</defs>
	<clipPath id="SVGID_2_">
		<use xlink:href="#SVGID_1_"  overflow="visible"/>
	</clipPath>
	<path clip-path="url(#SVGID_2_)" fill="none" stroke="#FFFFFF" stroke-width="1.75" stroke-miterlimit="10" d="M177.052,89.685
		c0,48.232-39.135,87.368-87.361,87.368c-48.26,0-87.38-39.136-87.38-87.368c0-48.254,39.121-87.376,87.38-87.376
		C137.917,2.309,177.052,41.431,177.052,89.685z"/>
	<path clip-path="url(#SVGID_2_)" fill="#FFFFFF" d="M149.338,30.577l-0.019,24.569l-5.286-3.056l-34.955,52.587l15.957,23.921
		h-14.542l-9.829-16.021l-9.88,16.021H76.285l15.871-23.921L77.091,81.786h14.484l8.355,13.717l33.01-49.836l-4.979-2.888
		l21.335-12.272C134,15.018,112.8,5.406,89.304,5.406c-46.547,0-84.27,37.73-84.27,84.279c0,26.625,12.364,50.326,31.644,65.783
		V66.826h35.285v10.697h-22.45v15.87h20.891v10.667H49.513v59.927c11.854,6.332,25.399,9.965,39.791,9.965
		c46.547,0,84.279-37.729,84.279-84.267C173.583,66.643,164.339,45.784,149.338,30.577"/>
</g>
<polygon fill="#FFFFFF" points="203.424,138.567 189.547,138.567 189.547,72.05 227.674,72.05 227.674,83.608 203.424,83.608 
	203.424,100.759 225.989,100.759 225.989,112.269 203.424,112.269 "/>
<g>
	<defs>
		<rect id="SVGID_3_" x="172.637" y="34.453" width="498.529" height="108.457"/>
	</defs>
	<clipPath id="SVGID_4_">
		<use xlink:href="#SVGID_3_"  overflow="visible"/>
	</clipPath>
	<path clip-path="url(#SVGID_4_)" fill="#FFFFFF" d="M285.815,113.039c0,8.284-2.183,14.76-6.551,19.431
		c-4.366,4.671-10.448,7.006-18.243,7.006c-4.884,0-9.19-1.07-12.921-3.208c-3.731-2.136-6.597-5.209-8.598-9.211
		c-2.002-4.005-3.004-8.674-3.004-14.018c0-8.305,2.169-14.767,6.506-19.375c4.337-4.612,10.435-6.917,18.289-6.917
		c4.884,0,9.191,1.061,12.922,3.184c3.73,2.124,6.596,5.172,8.599,9.144C284.814,103.052,285.815,107.708,285.815,113.039
		 M250.648,113.039c0,5.039,0.825,8.844,2.479,11.425c1.653,2.578,4.346,3.867,8.075,3.867c3.699,0,6.362-1.284,7.983-3.844
		c1.626-2.566,2.437-6.378,2.437-11.448c0-5.029-0.819-8.809-2.457-11.323c-1.638-2.52-4.323-3.778-8.054-3.778
		c-3.699,0-6.368,1.253-8.006,3.755C251.466,104.192,250.648,107.979,250.648,113.039"/>
	<path clip-path="url(#SVGID_4_)" fill="#FFFFFF" d="M325.67,86.748c1.88,0,3.441,0.136,4.687,0.408l-1.048,13.013
		c-1.121-0.303-2.487-0.456-4.093-0.456c-4.431,0-7.879,1.137-10.351,3.411c-2.473,2.274-3.709,5.461-3.709,9.556v25.888h-13.875
		V87.703h10.511l2.046,8.552h0.683c1.574-2.85,3.707-5.148,6.39-6.892C319.597,87.617,322.513,86.748,325.67,86.748"/>
	<path clip-path="url(#SVGID_4_)" fill="#FFFFFF" d="M362.613,139.476c-8.191,0-14.589-2.259-19.201-6.776
		c-4.609-4.523-6.914-10.921-6.914-19.201c0-8.521,2.13-15.11,6.392-19.766c4.26-4.658,10.154-6.985,17.677-6.985
		c7.186,0,12.783,2.046,16.785,6.141c4.006,4.096,6.005,9.753,6.005,16.971v6.734h-32.801c0.152,3.94,1.322,7.021,3.502,9.232
		c2.183,2.216,5.248,3.323,9.19,3.323c3.065,0,5.964-0.321,8.692-0.956c2.732-0.634,5.578-1.649,8.553-3.049v10.739
		c-2.429,1.213-5.021,2.113-7.779,2.708C369.953,139.182,366.586,139.476,362.613,139.476 M360.658,96.619
		c-2.942,0-5.248,0.933-6.918,2.796c-1.668,1.868-2.622,4.517-2.864,7.941h19.47c-0.061-3.425-0.955-6.073-2.681-7.941
		C365.933,97.552,363.598,96.619,360.658,96.619"/>
	<polygon clip-path="url(#SVGID_4_)" fill="#FFFFFF" points="405.059,112.59 388.681,87.702 404.424,87.702 414.293,103.898 
		424.261,87.702 439.999,87.702 423.437,112.59 440.771,138.567 424.984,138.567 414.293,121.14 403.559,138.567 387.815,138.567 	
		"/>
	<path clip-path="url(#SVGID_4_)" fill="#FFFFFF" d="M560.087,138.593l-2.695-6.913h-0.346c-2.33,2.915-4.73,4.967-7.209,6.107
		c-2.496,1.132-5.705,1.695-9.67,1.695c-4.889,0-8.744-1.396-11.531-4.166c-2.807-2.808-4.217-6.788-4.217-11.919
		c0-5.405,1.895-9.39,5.672-11.961c3.793-2.554,9.467-3.973,17.088-4.243l8.803-0.275v-2.229c0-5.154-2.621-7.74-7.912-7.74
		c-4.045,0-8.824,1.247-14.326,3.694l-4.578-9.372c5.846-3.058,12.334-4.594,19.465-4.594c6.82,0,12.055,1.482,15.691,4.448
		c3.619,2.979,5.467,7.502,5.467,13.563v33.904H560.087z M555.982,115.01l-5.346,0.189c-4.043,0.128-7.033,0.847-9.008,2.188
		c-1.975,1.336-2.977,3.358-2.977,6.104c0,3.902,2.252,5.86,6.752,5.86c3.215,0,5.801-0.924,7.695-2.773
		c1.932-1.859,2.883-4.307,2.883-7.366V115.01z"/>
	<path clip-path="url(#SVGID_4_)" fill="#FFFFFF" d="M612.468,86.769c1.863,0,3.434,0.132,4.668,0.4l-1.049,13.01
		c-1.113-0.297-2.475-0.453-4.074-0.453c-4.453,0-7.885,1.148-10.344,3.424c-2.492,2.265-3.73,5.453-3.73,9.556v25.888h-13.871
		V87.722h10.512l2.037,8.548h0.682c1.584-2.839,3.711-5.153,6.406-6.891C606.386,87.633,609.304,86.769,612.468,86.769"/>
	<path clip-path="url(#SVGID_4_)" fill="#FFFFFF" d="M647.822,128.444c2.416,0,5.316-0.529,8.719-1.599v10.334
		c-3.449,1.536-7.697,2.303-12.73,2.303c-5.563,0-9.59-1.396-12.131-4.19c-2.533-2.821-3.805-7.028-3.805-12.637V98.15h-6.631
		v-5.884l7.648-4.635l3.994-10.737h8.873v10.827h14.23V98.15h-14.23v24.505c0,1.977,0.547,3.436,1.664,4.378
		C644.535,127.972,645.994,128.444,647.822,128.444"/>
	<path clip-path="url(#SVGID_4_)" fill="#FFFFFF" d="M492.947,72.068l-16.688,50.873h-0.287l-15.737-50.873h-7.158L441.04,90.232
		v48.36h12.587V107.64c0-3.543-0.284-10.625-0.85-21.231h0.41l16,52.184h12.916l17.176-52.099h0.395
		c-0.363,8.373-0.566,13.52-0.615,15.47c-0.043,1.937-0.074,3.653-0.074,5.141v31.488h13.162V72.068H492.947z"/>
	<polygon clip-path="url(#SVGID_4_)" fill="#FFFFFF" points="445.756,53.597 457.119,60.803 420.602,118.534 413.158,105.097 	"/>
	<polygon clip-path="url(#SVGID_4_)" fill="#FFFFFF" points="435.147,53.555 462.386,37.886 462.337,69.31 	"/>
</g>
</svg>
