<?xml version="1.0" encoding="utf-8"?>
<!-- Generator: Adobe Illustrator 15.1.0, SVG Export Plug-In . SVG Version: 6.00 Build 0)  -->
<!DOCTYPE svg PUBLIC "-//W3C//DTD SVG 1.1//EN" "http://www.w3.org/Graphics/SVG/1.1/DTD/svg11.dtd">
<svg version="1.1" id="Layer_1" xmlns="http://www.w3.org/2000/svg" xmlns:xlink="http://www.w3.org/1999/xlink" x="0px" y="0px"
	 width="179.363px" height="179.363px" viewBox="0 0 179.363 179.363" enable-background="new 0 0 179.363 179.363"
	 xml:space="preserve">
<g>
	<g>
		<defs>
			<rect id="SVGID_1_" width="179.363" height="179.363"/>
		</defs>
		<clipPath id="SVGID_2_">
			<use xlink:href="#SVGID_1_"  overflow="visible"/>
		</clipPath>
		<path clip-path="url(#SVGID_2_)" fill="none" stroke="#FFFFFF" stroke-miterlimit="10" d="M177.052,89.685
			c0,48.232-39.135,87.368-87.361,87.368c-48.26,0-87.38-39.136-87.38-87.368c0-48.254,39.121-87.376,87.38-87.376
			C137.917,2.309,177.052,41.431,177.052,89.685z"/>
	</g>
	<g>
		<defs>
			<rect id="SVGID_3_" width="179.363" height="179.363"/>
		</defs>
		<clipPath id="SVGID_4_">
			<use xlink:href="#SVGID_3_"  overflow="visible"/>
		</clipPath>
		<path clip-path="url(#SVGID_4_)" fill="#FFFFFF" d="M149.338,30.577l-0.019,24.569l-5.286-3.056l-34.955,52.587l15.957,23.921
			h-14.542l-9.829-16.021l-9.88,16.021H76.285l15.871-23.921L77.091,81.786h14.484l8.355,13.717l33.01-49.836l-4.979-2.888
			l21.335-12.272C134,15.018,112.8,5.406,89.304,5.406c-46.547,0-84.27,37.729-84.27,84.279c0,26.625,12.364,50.326,31.644,65.783
			V66.826h35.285v10.697h-22.45v15.87h20.891v10.668H49.513v59.926c11.854,6.332,25.399,9.966,39.791,9.966
			c46.547,0,84.279-37.729,84.279-84.267C173.583,66.643,164.339,45.784,149.338,30.577"/>
	</g>
</g>
</svg>
