<?xml version="1.0" encoding="utf-8"?>
<!-- Generator: Adobe Illustrator 15.1.0, SVG Export Plug-In . SVG Version: 6.00 Build 0)  -->
<!DOCTYPE svg PUBLIC "-//W3C//DTD SVG 1.1//EN" "http://www.w3.org/Graphics/SVG/1.1/DTD/svg11.dtd">
<svg version="1.1" id="Layer_1" xmlns="http://www.w3.org/2000/svg" xmlns:xlink="http://www.w3.org/1999/xlink" x="0px" y="0px"
	 width="136.688px" height="29.737px" viewBox="266.917 74.95 136.688 29.737"
	 enable-background="new 266.917 74.95 136.688 29.737" xml:space="preserve">
<polygon fill="#FFFFFF" points="275.358,103.496 271.553,103.496 271.553,85.258 282.007,85.258 282.007,88.427 275.358,88.427 
	275.358,93.13 281.545,93.13 281.545,96.286 275.358,96.286 "/>
<g>
	<g>
		<defs>
			<rect id="SVGID_1_" x="266.917" y="74.95" width="136.688" height="29.737"/>
		</defs>
		<clipPath id="SVGID_2_">
			<use xlink:href="#SVGID_1_"  overflow="visible"/>
		</clipPath>
		<path clip-path="url(#SVGID_2_)" fill="#FFFFFF" d="M297.948,96.496c0,2.271-0.599,4.048-1.796,5.328
			c-1.197,1.281-2.864,1.921-5.001,1.921c-1.339,0-2.52-0.293-3.543-0.88c-1.022-0.585-1.808-1.428-2.357-2.525
			c-0.549-1.098-0.823-2.378-0.823-3.844c0-2.276,0.595-4.048,1.784-5.313c1.189-1.265,2.861-1.896,5.014-1.896
			c1.339,0,2.521,0.291,3.543,0.873c1.022,0.582,1.808,1.418,2.358,2.507C297.673,93.759,297.948,95.035,297.948,96.496
			 M288.306,96.496c0,1.383,0.226,2.426,0.68,3.133s1.192,1.061,2.214,1.061c1.015,0,1.745-0.353,2.189-1.054
			c0.446-0.704,0.668-1.748,0.668-3.14c0-1.378-0.224-2.414-0.674-3.104c-0.449-0.69-1.186-1.035-2.208-1.035
			c-1.015,0-1.746,0.343-2.195,1.029C288.53,94.07,288.306,95.108,288.306,96.496"/>
	</g>
	<g>
		<defs>
			<rect id="SVGID_3_" x="266.917" y="74.95" width="136.688" height="29.737"/>
		</defs>
		<clipPath id="SVGID_4_">
			<use xlink:href="#SVGID_3_"  overflow="visible"/>
		</clipPath>
		<path clip-path="url(#SVGID_4_)" fill="#FFFFFF" d="M308.875,89.289c0.516,0,0.942,0.037,1.285,0.112l-0.287,3.567
			c-0.308-0.082-0.683-0.125-1.123-0.125c-1.214,0-2.159,0.312-2.838,0.935c-0.678,0.625-1.017,1.498-1.017,2.621v7.098h-3.804
			V89.55h2.881l0.562,2.345h0.188c0.432-0.782,1.016-1.412,1.752-1.891C307.21,89.527,308.009,89.289,308.875,89.289"/>
	</g>
	<g>
		<defs>
			<rect id="SVGID_5_" x="266.917" y="74.95" width="136.688" height="29.737"/>
		</defs>
		<clipPath id="SVGID_6_">
			<use xlink:href="#SVGID_5_"  overflow="visible"/>
		</clipPath>
		<path clip-path="url(#SVGID_6_)" fill="#FFFFFF" d="M319.004,103.745c-2.246,0-3.999-0.619-5.265-1.858
			c-1.264-1.24-1.895-2.994-1.895-5.264c0-2.336,0.583-4.144,1.751-5.42c1.169-1.276,2.784-1.915,4.847-1.915
			c1.971,0,3.506,0.56,4.603,1.683c1.099,1.124,1.647,2.675,1.647,4.653v1.847h-8.994c0.041,1.08,0.362,1.925,0.96,2.531
			c0.599,0.607,1.438,0.911,2.52,0.911c0.841,0,1.636-0.088,2.384-0.263c0.749-0.174,1.529-0.452,2.345-0.836v2.944
			c-0.666,0.333-1.377,0.58-2.133,0.743C321.017,103.664,320.093,103.745,319.004,103.745 M318.468,91.995
			c-0.807,0-1.438,0.255-1.896,0.767c-0.457,0.512-0.719,1.237-0.785,2.176h5.338c-0.016-0.938-0.262-1.664-0.734-2.176
			C319.916,92.25,319.275,91.995,318.468,91.995"/>
	</g>
	<g>
		<defs>
			<rect id="SVGID_7_" x="266.917" y="74.95" width="136.688" height="29.737"/>
		</defs>
		<clipPath id="SVGID_8_">
			<use xlink:href="#SVGID_7_"  overflow="visible"/>
		</clipPath>
		<polygon clip-path="url(#SVGID_8_)" fill="#FFFFFF" points="330.642,96.373 326.151,89.55 330.467,89.55 333.174,93.99 
			335.907,89.55 340.222,89.55 335.683,96.373 340.435,103.496 336.106,103.496 333.174,98.718 330.231,103.496 325.915,103.496 		
			"/>
	</g>
	<g>
		<defs>
			<rect id="SVGID_9_" x="266.917" y="74.95" width="136.688" height="29.737"/>
		</defs>
		<clipPath id="SVGID_10_">
			<use xlink:href="#SVGID_9_"  overflow="visible"/>
		</clipPath>
		<path clip-path="url(#SVGID_10_)" fill="#FFFFFF" d="M373.149,103.503l-0.74-1.896h-0.096c-0.639,0.799-1.297,1.362-1.975,1.674
			c-0.686,0.312-1.566,0.466-2.652,0.466c-1.34,0-2.398-0.383-3.162-1.143c-0.77-0.77-1.156-1.861-1.156-3.269
			c0-1.481,0.52-2.574,1.557-3.279c1.039-0.699,2.596-1.089,4.684-1.162l2.414-0.077v-0.609c0-1.414-0.719-2.123-2.17-2.123
			c-1.109,0-2.418,0.342-3.928,1.013l-1.254-2.568c1.602-0.839,3.381-1.26,5.336-1.26c1.869,0,3.305,0.406,4.303,1.22
			c0.992,0.815,1.498,2.056,1.498,3.718v9.296H373.149L373.149,103.503z M372.022,97.037l-1.467,0.053
			c-1.107,0.034-1.928,0.231-2.469,0.6c-0.541,0.365-0.816,0.92-0.816,1.674c0,1.069,0.617,1.605,1.852,1.605
			c0.881,0,1.59-0.253,2.109-0.76c0.529-0.51,0.791-1.181,0.791-2.021V97.037L372.022,97.037z"/>
	</g>
	<g>
		<defs>
			<rect id="SVGID_11_" x="266.917" y="74.95" width="136.688" height="29.737"/>
		</defs>
		<clipPath id="SVGID_12_">
			<use xlink:href="#SVGID_11_"  overflow="visible"/>
		</clipPath>
		<path clip-path="url(#SVGID_12_)" fill="#FFFFFF" d="M387.511,89.293c0.51,0,0.939,0.037,1.279,0.11l-0.287,3.568
			c-0.307-0.082-0.68-0.125-1.117-0.125c-1.221,0-2.162,0.314-2.836,0.938c-0.684,0.622-1.023,1.495-1.023,2.621v7.097h-3.803
			V89.555h2.883l0.559,2.343h0.186c0.434-0.777,1.018-1.413,1.758-1.889C385.843,89.531,386.642,89.293,387.511,89.293"/>
	</g>
	<g>
		<defs>
			<rect id="SVGID_13_" x="266.917" y="74.95" width="136.688" height="29.737"/>
		</defs>
		<clipPath id="SVGID_14_">
			<use xlink:href="#SVGID_13_"  overflow="visible"/>
		</clipPath>
		<path clip-path="url(#SVGID_14_)" fill="#FFFFFF" d="M397.202,100.721c0.664,0,1.459-0.146,2.391-0.438v2.834
			c-0.945,0.42-2.109,0.631-3.49,0.631c-1.525,0-2.627-0.383-3.326-1.148c-0.693-0.773-1.043-1.927-1.043-3.466v-6.718h-1.816
			v-1.614l2.096-1.271l1.096-2.944h2.434v2.968h3.9v2.86h-3.9v6.718c0,0.542,0.148,0.943,0.455,1.2
			C396.302,100.592,396.702,100.721,397.202,100.721"/>
	</g>
	<g>
		<defs>
			<rect id="SVGID_15_" x="266.917" y="74.95" width="136.688" height="29.737"/>
		</defs>
		<clipPath id="SVGID_16_">
			<use xlink:href="#SVGID_15_"  overflow="visible"/>
		</clipPath>
		<path clip-path="url(#SVGID_16_)" fill="#FFFFFF" d="M354.739,85.263l-4.576,13.948h-0.078l-4.314-13.948h-1.963l-3.301,4.98
			v13.26h3.453v-8.486c0-0.972-0.08-2.913-0.234-5.821h0.113l4.387,14.308h3.541l4.709-14.285h0.107
			c-0.1,2.296-0.154,3.707-0.168,4.241c-0.012,0.531-0.02,1.002-0.02,1.411v8.633h3.609v-18.24H354.739z"/>
	</g>
	<g>
		<defs>
			<rect id="SVGID_17_" x="266.917" y="74.95" width="136.688" height="29.737"/>
		</defs>
		<clipPath id="SVGID_18_">
			<use xlink:href="#SVGID_17_"  overflow="visible"/>
		</clipPath>
		<polygon clip-path="url(#SVGID_18_)" fill="#FFFFFF" points="341.8,80.199 344.917,82.174 334.904,98.004 332.862,94.319 		"/>
	</g>
	<g>
		<defs>
			<rect id="SVGID_19_" x="266.917" y="74.95" width="136.688" height="29.737"/>
		</defs>
		<clipPath id="SVGID_20_">
			<use xlink:href="#SVGID_19_"  overflow="visible"/>
		</clipPath>
		<polygon clip-path="url(#SVGID_20_)" fill="#FFFFFF" points="338.892,80.188 346.36,75.891 346.347,84.507 		"/>
	</g>
</g>
</svg>
